<svg width="51" height="40" viewBox="0 0 51 40" fill="none" xmlns="http://www.w3.org/2000/svg">
<path d="M0.845459 8.7368C0.845459 6.14674 1.61301 3.93537 3.22374 2.34595L6.01942 5.10463C2.9072 8.17566 5.63004 17.7067 14.5157 26.4747C23.4014 35.24 33.0602 37.9269 36.1724 34.8558L38.9681 37.6145C33.7101 42.8029 21.743 39.121 11.7228 29.2334C4.77285 22.3754 0.851062 14.5942 0.851062 8.73956L0.845459 8.7368Z" fill="#009A46"/>
<path d="M18.5105 40C15.8857 40 13.6447 39.2453 12.0339 37.6531L14.8296 34.8945C17.9418 37.9655 27.6034 35.2787 36.4863 26.5106C45.3691 17.7425 48.092 8.21155 44.9798 5.14052L47.7754 2.38184C53.0334 7.57026 49.3021 19.379 39.282 29.2665C32.332 36.1245 24.4464 39.9944 18.5133 39.9944L18.5105 40Z" fill="#FF5805"/>
<path d="M40.2117 25.3083C38.5113 20.4792 35.0377 15.3156 30.4296 10.7685C20.4067 0.880946 8.43959 -2.80098 3.18159 2.38468C2.80902 2.75508 3.13117 3.67003 3.90152 4.43296C4.67468 5.19588 5.6019 5.51376 5.97727 5.14336C9.08949 2.07232 18.7483 4.75913 27.634 13.5272C31.8275 17.6652 34.9677 22.3036 36.4776 26.5881C37.7998 30.3447 37.6709 33.3742 36.1302 34.8973C35.7577 35.2677 36.0798 36.1827 36.8502 36.9456C37.6233 37.7085 38.5505 38.0264 38.9259 37.656C41.6207 34.9968 42.0801 30.61 40.2117 25.3083Z" fill="#F5AFCB"/>
<path d="M47.7751 2.38464C45.0774 -0.274532 40.6346 -0.727863 35.2618 1.11587C30.3679 2.79374 25.1351 6.22136 20.527 10.7685C10.5069 20.6588 6.77556 32.4675 12.0308 37.656C12.4033 38.0264 13.3334 37.7057 14.1065 36.9456C14.8769 36.1826 15.2018 35.2677 14.8264 34.8973C11.7142 31.8262 14.4371 22.2952 23.3227 13.5272C27.5162 9.38915 32.2168 6.29047 36.5587 4.80056C40.3685 3.49585 43.4359 3.623 44.9794 5.14332C45.352 5.51372 46.282 5.19307 47.0551 4.43292C47.8255 3.67 48.1504 2.75504 47.7751 2.38464Z" fill="#FF9B00"/>
</svg>
