<svg width="345" height="159" viewBox="0 0 345 159" fill="none" xmlns="http://www.w3.org/2000/svg">
<g clip-path="url(#clip0_4430_1777)">
<path d="M333 0H12C5.37258 0 0 5.37258 0 12V147C0 153.627 5.37258 159 12 159H333C339.627 159 345 153.627 345 147V12C345 5.37258 339.627 0 333 0Z" fill="#183B1B"/>
<path d="M75.9401 54.9395H32.0601V98.8195H75.9401V54.9395Z" fill="#FEF9F2"/>
<path d="M67.5 63.3799H40.5V90.3799H67.5V63.3799Z" fill="#183B1B"/>
<path d="M98.7201 58.6303L91.5301 47.8203L56.3901 71.1703L49.1601 60.2203L38.3301 67.3803L45.5801 78.3503L45.7501 78.6203L52.7501 89.2003L63.5801 82.0403L63.5501 82.0003L98.7201 58.6303Z" fill="#00CE66"/>
<mask id="mask0_4430_1777" style="mask-type:alpha" maskUnits="userSpaceOnUse" x="0" y="0" width="345" height="159">
<path d="M333 0H12C5.37258 0 0 5.37258 0 12V147C0 153.627 5.37258 159 12 159H333C339.627 159 345 153.627 345 147V12C345 5.37258 339.627 0 333 0Z" fill="#183B1B"/>
</mask>
<g mask="url(#mask0_4430_1777)">
<path d="M307.51 17.3398H139.5C138.053 17.3398 136.88 18.5129 136.88 19.9598V19.9698C136.88 21.4168 138.053 22.5898 139.5 22.5898H307.51C308.957 22.5898 310.13 21.4168 310.13 19.9698V19.9598C310.13 18.5129 308.957 17.3398 307.51 17.3398Z" fill="#183B1B"/>
<g filter="url(#filter0_d_4430_1777)">
<path d="M146.38 138.89L300.26 138.89C310.886 138.89 319.5 130.276 319.5 119.65V38.9296C319.5 28.3037 310.886 19.6896 300.26 19.6896L146.38 19.6896C135.754 19.6896 127.14 28.3037 127.14 38.9296V119.65C127.14 130.276 135.754 138.89 146.38 138.89Z" fill="#FEC3C9"/>
</g>
<g filter="url(#filter1_d_4430_1777)">
<path d="M147.13 20.8896L301.01 20.8896C311.636 20.8896 320.25 12.2756 320.25 1.64965V-79.0704C320.25 -89.6963 311.636 -98.3103 301.01 -98.3103L147.13 -98.3103C136.504 -98.3103 127.89 -89.6963 127.89 -79.0704V1.64965C127.89 12.2756 136.504 20.8896 147.13 20.8896Z" fill="#FF838F"/>
</g>
<path d="M250.17 54.5596H215.73C214.394 54.5596 213.31 55.643 213.31 56.9796C213.31 58.3161 214.394 59.3996 215.73 59.3996H250.17C251.507 59.3996 252.59 58.3161 252.59 56.9796C252.59 55.643 251.507 54.5596 250.17 54.5596Z" fill="#183B1B"/>
<path d="M301.2 54.5596H261.4C260.064 54.5596 258.98 55.643 258.98 56.9796C258.98 58.3161 260.064 59.3996 261.4 59.3996H301.2C302.537 59.3996 303.62 58.3161 303.62 56.9796C303.62 55.643 302.537 54.5596 301.2 54.5596Z" fill="#183B1B"/>
<path d="M301.2 64.2393H215.73C214.394 64.2393 213.31 65.3227 213.31 66.6593C213.31 67.9958 214.394 69.0793 215.73 69.0793H301.2C302.537 69.0793 303.62 67.9958 303.62 66.6593C303.62 65.3227 302.537 64.2393 301.2 64.2393Z" fill="#183B1B"/>
<path d="M277.47 73.9199H215.73C214.394 73.9199 213.31 75.0034 213.31 76.3399C213.31 77.6764 214.394 78.7599 215.73 78.7599H277.47C278.807 78.7599 279.89 77.6764 279.89 76.3399C279.89 75.0034 278.807 73.9199 277.47 73.9199Z" fill="#183B1B"/>
<path d="M229.44 83.5898H215.73C214.394 83.5898 213.31 84.6733 213.31 86.0098C213.31 87.3464 214.394 88.4298 215.73 88.4298H229.44C230.777 88.4298 231.86 87.3464 231.86 86.0098C231.86 84.6733 230.777 83.5898 229.44 83.5898Z" fill="#183B1B"/>
<path d="M252.42 83.5898H238.71C237.374 83.5898 236.29 84.6733 236.29 86.0098C236.29 87.3464 237.374 88.4298 238.71 88.4298H252.42C253.757 88.4298 254.84 87.3464 254.84 86.0098C254.84 84.6733 253.757 83.5898 252.42 83.5898Z" fill="#183B1B"/>
<path d="M144.56 19.9697H147.56" stroke="#183B1B" stroke-miterlimit="10" stroke-linecap="round"/>
<path d="M153.73 19.9697H298.79" stroke="#183B1B" stroke-miterlimit="10" stroke-linecap="round"/>
<path d="M301.88 19.9697H304.88" stroke="#183B1B" stroke-miterlimit="10" stroke-linecap="round"/>
<path d="M277.32 28.1299H166.31C163.621 28.1299 161.44 30.3103 161.44 32.9999V33.0099C161.44 35.6995 163.621 37.8799 166.31 37.8799H277.32C280.01 37.8799 282.19 35.6995 282.19 33.0099V32.9999C282.19 30.3103 280.01 28.1299 277.32 28.1299Z" fill="#183B1B"/>
<path d="M160.73 109.42H187.41C196.589 109.42 204.03 101.979 204.03 92.7999V62.5999C204.03 53.421 196.589 45.9799 187.41 45.9799L160.73 45.9799C151.551 45.9799 144.11 53.421 144.11 62.5999V92.7999C144.11 101.979 151.551 109.42 160.73 109.42Z" fill="url(#paint0_linear_4430_1777)"/>
<path d="M165.93 87.3496H172.36H173.65H180.08C184.67 87.3496 188.78 90.1796 190.42 94.4696L195.35 107.41C193 108.69 190.3 109.42 187.43 109.42H160.75C157.15 109.42 153.82 108.27 151.1 106.32L155.62 94.4696C157.25 90.1796 161.37 87.3496 165.96 87.3496H165.93Z" fill="#00CE66"/>
<path d="M168.18 86.7297L169.52 81.2197H177.47L178.82 86.7797L179.44 89.3197C178.23 89.9797 175.99 90.4197 173.43 90.4197C170.87 90.4197 168.76 89.9997 167.53 89.3797L168.17 86.7297H168.18Z" fill="#875151"/>
<path d="M173.5 84.4394C179.448 84.4394 184.27 79.6175 184.27 73.6694C184.27 67.7213 179.448 62.8994 173.5 62.8994C167.552 62.8994 162.73 67.7213 162.73 73.6694C162.73 79.6175 167.552 84.4394 173.5 84.4394Z" fill="#875151"/>
<path d="M170.22 78.2898C171.25 78.6198 172.36 78.7998 173.5 78.7998C174.64 78.7998 175.81 78.6098 176.87 78.2598" stroke="#6A3636" stroke-width="0.5" stroke-linecap="round" stroke-linejoin="round"/>
<path d="M173.5 62.8994C178.7 62.8994 183.05 66.5894 184.05 71.4994C183.17 70.2294 182.38 68.8994 181.6 67.5594C181.26 66.9794 180.63 66.5894 179.91 66.5894H167.49C166.77 66.5894 166.14 66.9794 165.8 67.5594C164.88 69.1294 163.96 70.6894 162.88 72.1594L162.83 72.2194C163.54 66.9594 168.05 62.8994 173.5 62.8994Z" fill="#183B1B"/>
<path d="M163.17 70.6195V54.1495C163.17 52.7895 164.27 51.6895 165.63 51.6895H181.2C182.56 51.6895 183.66 52.7895 183.66 54.1495V70.0795C183.82 70.5395 183.95 71.0095 184.05 71.4895C183.85 71.1995 183.66 70.9095 183.47 70.6195C182.82 69.6195 182.21 68.5895 181.6 67.5495C181.26 66.9695 180.63 66.5795 179.91 66.5795H167.49C166.77 66.5795 166.14 66.9695 165.8 67.5495C165.19 68.5795 164.59 69.6195 163.93 70.6195C163.59 71.1395 163.25 71.6495 162.88 72.1495L162.83 72.2095C162.9 71.6695 163.02 71.1295 163.17 70.6195Z" fill="#183B1B"/>
<path d="M161.657 75.6859C161.735 76.3328 162.323 76.794 162.97 76.7158C163.617 76.6376 164.078 76.0497 164 75.4027L163.471 71.0246C163.393 70.3776 162.805 69.9165 162.158 69.9947C161.511 70.0728 161.05 70.6607 161.128 71.3077L161.657 75.6859Z" fill="#875151"/>
<path d="M182.835 75.4165C182.757 76.0635 183.218 76.6514 183.865 76.7295C184.512 76.8077 185.1 76.3466 185.178 75.6996L185.707 71.3215C185.785 70.6745 185.324 70.0866 184.677 70.0084C184.03 69.9303 183.442 70.3914 183.364 71.0384L182.835 75.4165Z" fill="#875151"/>
<path d="M184.76 75.5197V75.5397C184.76 75.5397 184.69 75.5797 184.66 75.5597H184.65C184.65 75.5597 184.56 75.5397 184.55 75.5897V75.6097C184.55 75.6097 184.5 75.6697 184.46 75.6597H184.44C184.44 75.6597 184.35 75.6797 184.36 75.7197V75.7397C184.36 75.7397 184.34 75.8097 184.3 75.8097H184.28C184.28 75.8097 184.2 75.8597 184.23 75.8997C184.23 75.8997 184.23 75.9897 184.2 76.0097H184.18C184.18 76.0097 184.12 76.0897 184.16 76.1197H184.17C184.17 76.1197 184.2 76.1997 184.17 76.2297H184.16C184.16 76.2297 184.13 76.3297 184.18 76.3497H184.2C184.2 76.3497 184.25 76.4097 184.23 76.4497C184.2 76.5097 184.23 76.5597 184.28 76.5597H184.3C184.3 76.5597 184.37 76.5897 184.36 76.6297V76.6497C184.36 76.6497 184.39 76.7397 184.44 76.7197H184.46C184.46 76.7197 184.54 76.7197 184.54 76.7597V76.7797C184.54 76.7797 184.61 76.8497 184.65 76.8197H184.66C184.66 76.8197 184.74 76.7897 184.76 76.8197V76.8397C184.76 76.8397 184.85 76.8797 184.88 76.8397V76.8197C184.88 76.8197 184.95 76.7797 184.98 76.7997H184.99C184.99 76.7997 185.08 76.8197 185.09 76.7697V76.7497C185.09 76.7497 185.14 76.6897 185.18 76.6997H185.2C185.2 76.6997 185.29 76.6797 185.28 76.6397V76.6197C185.28 76.6197 185.3 76.5497 185.34 76.5497H185.36C185.36 76.5497 185.44 76.4997 185.41 76.4597C185.41 76.4597 185.41 76.3697 185.44 76.3497H185.46C185.46 76.3497 185.52 76.2697 185.48 76.2397H185.47C185.47 76.2397 185.44 76.1597 185.47 76.1297H185.48C185.48 76.1297 185.51 76.0297 185.46 76.0097H185.44C185.44 76.0097 185.39 75.9497 185.41 75.9097C185.44 75.8497 185.41 75.7997 185.36 75.7997H185.34C185.34 75.7997 185.27 75.7697 185.28 75.7297V75.7097C185.28 75.7097 185.25 75.6197 185.2 75.6397H185.18C185.18 75.6397 185.1 75.6397 185.1 75.5997V75.5797C185.1 75.5797 185.03 75.5097 184.99 75.5397H184.98C184.98 75.5397 184.9 75.5697 184.88 75.5397V75.5197C184.88 75.5197 184.79 75.4797 184.76 75.5197Z" fill="#FEDD00"/>
<path d="M162.29 75.5197V75.5397C162.29 75.5397 162.22 75.5797 162.19 75.5597H162.18C162.18 75.5597 162.09 75.5397 162.08 75.5897V75.6097C162.08 75.6097 162.03 75.6697 161.99 75.6597H161.97C161.97 75.6597 161.88 75.6797 161.89 75.7197V75.7397C161.89 75.7397 161.87 75.8097 161.83 75.8097H161.81C161.81 75.8097 161.73 75.8597 161.76 75.8997C161.76 75.8997 161.76 75.9897 161.73 76.0097H161.71C161.71 76.0097 161.65 76.0897 161.69 76.1197H161.7C161.7 76.1197 161.73 76.1997 161.7 76.2297H161.69C161.69 76.2297 161.66 76.3297 161.71 76.3497H161.73C161.73 76.3497 161.78 76.4097 161.76 76.4497C161.73 76.5097 161.76 76.5597 161.81 76.5597H161.83C161.83 76.5597 161.9 76.5897 161.89 76.6297V76.6497C161.89 76.6497 161.92 76.7397 161.97 76.7197H161.99C161.99 76.7197 162.07 76.7197 162.07 76.7597V76.7797C162.07 76.7797 162.14 76.8497 162.18 76.8197H162.19C162.19 76.8197 162.27 76.7897 162.29 76.8197V76.8397C162.29 76.8397 162.38 76.8797 162.41 76.8397V76.8197C162.41 76.8197 162.48 76.7797 162.51 76.7997H162.52C162.52 76.7997 162.61 76.8197 162.62 76.7697V76.7497C162.62 76.7497 162.67 76.6897 162.71 76.6997H162.73C162.73 76.6997 162.82 76.6797 162.81 76.6397V76.6197C162.81 76.6197 162.83 76.5497 162.87 76.5497H162.89C162.89 76.5497 162.97 76.4997 162.94 76.4597C162.94 76.4597 162.94 76.3697 162.97 76.3497H162.99C162.99 76.3497 163.05 76.2697 163.01 76.2397H163C163 76.2397 162.97 76.1597 163 76.1297H163.01C163.01 76.1297 163.04 76.0297 162.99 76.0097H162.97C162.97 76.0097 162.92 75.9497 162.94 75.9097C162.97 75.8497 162.94 75.7997 162.89 75.7997H162.87C162.87 75.7997 162.8 75.7697 162.81 75.7297V75.7097C162.81 75.7097 162.78 75.6197 162.73 75.6397H162.71C162.71 75.6397 162.63 75.6397 162.63 75.5997V75.5797C162.63 75.5797 162.56 75.5097 162.52 75.5397H162.51C162.51 75.5397 162.43 75.5697 162.41 75.5397V75.5197C162.41 75.5197 162.32 75.4797 162.29 75.5197Z" fill="#FEDD00"/>
<path d="M127.14 119.65C127.14 130.27 135.75 138.89 146.38 138.89H300.27C310.89 138.89 319.51 130.28 319.51 119.65V119.63H127.14V119.65Z" fill="#FEF9F2"/>
<path d="M161.64 127.05H147.93C146.594 127.05 145.51 128.133 145.51 129.47C145.51 130.806 146.594 131.89 147.93 131.89H161.64C162.977 131.89 164.06 130.806 164.06 129.47C164.06 128.133 162.977 127.05 161.64 127.05Z" fill="#183B1B"/>
<path d="M184.04 127.05H170.33C168.994 127.05 167.91 128.133 167.91 129.47C167.91 130.806 168.994 131.89 170.33 131.89H184.04C185.377 131.89 186.46 130.806 186.46 129.47C186.46 128.133 185.377 127.05 184.04 127.05Z" fill="#183B1B"/>
<path d="M206.45 127.05H192.74C191.404 127.05 190.32 128.133 190.32 129.47C190.32 130.806 191.404 131.89 192.74 131.89H206.45C207.787 131.89 208.87 130.806 208.87 129.47C208.87 128.133 207.787 127.05 206.45 127.05Z" fill="#183B1B"/>
<path d="M227.24 133.499C227.14 133.499 227.03 133.469 226.94 133.409L226.92 133.389C226.68 133.219 226.62 132.889 226.79 132.649C226.96 132.409 227.29 132.349 227.53 132.519L227.55 132.539C227.79 132.709 227.85 133.039 227.68 133.279C227.58 133.429 227.41 133.509 227.24 133.509V133.499Z" fill="#183B1B"/>
<path d="M227.21 133.479C227.11 133.479 227 133.449 226.91 133.389L224.21 131.529C223.39 130.969 222.91 130.039 222.91 129.049C222.91 128.059 223.4 127.129 224.21 126.569L226.93 124.689C227.17 124.519 227.5 124.579 227.67 124.829C227.84 125.069 227.78 125.399 227.53 125.569L224.81 127.449C224.27 127.819 223.97 128.409 223.97 129.059C223.97 129.709 224.28 130.299 224.81 130.669L227.51 132.529C227.75 132.699 227.81 133.029 227.65 133.269C227.55 133.419 227.38 133.499 227.21 133.499V133.479Z" fill="#183B1B"/>
<path d="M235.11 133.499C235.01 133.499 234.9 133.469 234.81 133.409L234.79 133.389C234.55 133.219 234.49 132.889 234.66 132.649C234.83 132.409 235.16 132.349 235.4 132.519L235.42 132.539C235.66 132.709 235.72 133.039 235.55 133.279C235.45 133.429 235.28 133.509 235.11 133.509V133.499Z" fill="#183B1B"/>
<path d="M235.09 133.479C234.99 133.479 234.88 133.449 234.79 133.389L232.09 131.529C231.27 130.969 230.79 130.039 230.79 129.049C230.79 128.059 231.28 127.129 232.09 126.569L234.81 124.689C235.05 124.519 235.38 124.579 235.55 124.829C235.72 125.069 235.66 125.399 235.41 125.569L232.69 127.449C232.15 127.819 231.85 128.409 231.85 129.059C231.85 129.709 232.16 130.299 232.69 130.669L235.39 132.529C235.63 132.699 235.69 133.029 235.53 133.269C235.43 133.419 235.26 133.499 235.09 133.499V133.479Z" fill="#183B1B"/>
<path d="M242.99 133.499C242.89 133.499 242.78 133.469 242.69 133.409L242.67 133.389C242.43 133.219 242.37 132.889 242.54 132.649C242.71 132.409 243.04 132.349 243.28 132.519L243.3 132.539C243.54 132.709 243.6 133.039 243.43 133.279C243.33 133.429 243.16 133.509 242.99 133.509V133.499Z" fill="#183B1B"/>
<path d="M242.96 133.479C242.86 133.479 242.75 133.449 242.66 133.389L239.96 131.529C239.14 130.969 238.66 130.039 238.66 129.049C238.66 128.059 239.15 127.129 239.96 126.569L242.68 124.689C242.92 124.519 243.25 124.579 243.42 124.829C243.59 125.069 243.53 125.399 243.28 125.569L240.56 127.449C240.02 127.819 239.72 128.409 239.72 129.059C239.72 129.709 240.03 130.299 240.56 130.669L243.26 132.529C243.5 132.699 243.56 133.029 243.4 133.269C243.3 133.419 243.13 133.499 242.96 133.499V133.479Z" fill="#183B1B"/>
<path d="M250.86 133.499C250.76 133.499 250.65 133.469 250.56 133.409L250.54 133.389C250.3 133.219 250.24 132.889 250.41 132.649C250.58 132.409 250.91 132.349 251.15 132.519L251.17 132.539C251.41 132.709 251.47 133.039 251.3 133.279C251.2 133.429 251.03 133.509 250.86 133.509V133.499Z" fill="#183B1B"/>
<path d="M250.84 133.479C250.74 133.479 250.63 133.449 250.54 133.389L247.84 131.529C247.02 130.969 246.54 130.039 246.54 129.049C246.54 128.059 247.03 127.129 247.84 126.569L250.56 124.689C250.8 124.519 251.13 124.579 251.3 124.829C251.47 125.069 251.41 125.399 251.16 125.569L248.44 127.449C247.9 127.819 247.6 128.409 247.6 129.059C247.6 129.709 247.91 130.299 248.44 130.669L251.14 132.529C251.38 132.699 251.44 133.029 251.28 133.269C251.18 133.419 251.01 133.499 250.84 133.499V133.479Z" fill="#183B1B"/>
<path d="M258.74 133.499C258.64 133.499 258.53 133.469 258.44 133.409L258.42 133.389C258.18 133.219 258.12 132.889 258.29 132.649C258.46 132.409 258.79 132.349 259.03 132.519L259.05 132.539C259.29 132.709 259.35 133.039 259.18 133.279C259.08 133.429 258.91 133.509 258.74 133.509V133.499Z" fill="#183B1B"/>
<path d="M258.71 133.479C258.61 133.479 258.5 133.449 258.41 133.389L255.71 131.529C254.89 130.969 254.41 130.039 254.41 129.049C254.41 128.059 254.9 127.129 255.71 126.569L258.43 124.689C258.67 124.519 259 124.579 259.17 124.829C259.34 125.069 259.28 125.399 259.03 125.569L256.31 127.449C255.77 127.819 255.47 128.409 255.47 129.059C255.47 129.709 255.78 130.299 256.31 130.669L259.01 132.529C259.25 132.699 259.31 133.029 259.15 133.269C259.05 133.419 258.88 133.499 258.71 133.499V133.479Z" fill="#183B1B"/>
<path d="M266.61 133.499C266.51 133.499 266.4 133.469 266.31 133.409L266.29 133.389C266.05 133.219 265.99 132.889 266.16 132.649C266.33 132.409 266.66 132.349 266.9 132.519L266.92 132.539C267.16 132.709 267.22 133.039 267.05 133.279C266.95 133.429 266.78 133.509 266.61 133.509V133.499Z" fill="#183B1B"/>
<path d="M266.59 133.479C266.49 133.479 266.38 133.449 266.29 133.389L263.59 131.529C262.77 130.969 262.29 130.039 262.29 129.049C262.29 128.059 262.78 127.129 263.59 126.569L266.31 124.689C266.55 124.519 266.88 124.579 267.05 124.829C267.22 125.069 267.16 125.399 266.91 125.569L264.19 127.449C263.65 127.819 263.35 128.409 263.35 129.059C263.35 129.709 263.66 130.299 264.19 130.669L266.89 132.529C267.13 132.699 267.19 133.029 267.03 133.269C266.93 133.419 266.76 133.499 266.59 133.499V133.479Z" fill="#183B1B"/>
<path d="M274.49 133.499C274.39 133.499 274.28 133.469 274.19 133.409L274.17 133.389C273.93 133.219 273.87 132.889 274.04 132.649C274.21 132.409 274.54 132.349 274.78 132.519L274.8 132.539C275.04 132.709 275.1 133.039 274.93 133.279C274.83 133.429 274.66 133.509 274.49 133.509V133.499Z" fill="#183B1B"/>
<path d="M274.46 133.479C274.36 133.479 274.25 133.449 274.16 133.389L271.46 131.529C270.64 130.969 270.16 130.039 270.16 129.049C270.16 128.059 270.65 127.129 271.46 126.569L274.18 124.689C274.42 124.519 274.75 124.579 274.92 124.829C275.09 125.069 275.03 125.399 274.78 125.569L272.06 127.449C271.52 127.819 271.22 128.409 271.22 129.059C271.22 129.709 271.53 130.299 272.06 130.669L274.76 132.529C275 132.699 275.06 133.029 274.9 133.269C274.8 133.419 274.63 133.499 274.46 133.499V133.479Z" fill="#183B1B"/>
<path d="M282.36 133.499C282.26 133.499 282.15 133.469 282.06 133.409L282.04 133.389C281.8 133.219 281.74 132.889 281.91 132.649C282.08 132.409 282.41 132.349 282.65 132.519L282.67 132.539C282.91 132.709 282.97 133.039 282.8 133.279C282.7 133.429 282.53 133.509 282.36 133.509V133.499Z" fill="#183B1B"/>
<path d="M282.34 133.479C282.24 133.479 282.13 133.449 282.04 133.389L279.34 131.529C278.52 130.969 278.04 130.039 278.04 129.049C278.04 128.059 278.53 127.129 279.34 126.569L282.06 124.689C282.3 124.519 282.63 124.579 282.8 124.829C282.97 125.069 282.91 125.399 282.66 125.569L279.94 127.449C279.4 127.819 279.1 128.409 279.1 129.059C279.1 129.709 279.41 130.299 279.94 130.669L282.64 132.529C282.88 132.699 282.94 133.029 282.78 133.269C282.68 133.419 282.51 133.499 282.34 133.499V133.479Z" fill="#183B1B"/>
<path d="M290.24 133.499C290.14 133.499 290.03 133.469 289.94 133.409L289.92 133.389C289.68 133.219 289.62 132.889 289.79 132.649C289.96 132.409 290.29 132.349 290.53 132.519L290.55 132.539C290.79 132.709 290.85 133.039 290.68 133.279C290.58 133.429 290.41 133.509 290.24 133.509V133.499Z" fill="#183B1B"/>
<path d="M290.21 133.479C290.11 133.479 290 133.449 289.91 133.389L287.21 131.529C286.39 130.969 285.91 130.039 285.91 129.049C285.91 128.059 286.4 127.129 287.21 126.569L289.93 124.689C290.17 124.519 290.5 124.579 290.67 124.829C290.84 125.069 290.78 125.399 290.53 125.569L287.81 127.449C287.27 127.819 286.97 128.409 286.97 129.059C286.97 129.709 287.28 130.299 287.81 130.669L290.51 132.529C290.75 132.699 290.81 133.029 290.65 133.269C290.55 133.419 290.38 133.499 290.21 133.499V133.479Z" fill="#183B1B"/>
<path d="M298.11 133.499C298.01 133.499 297.9 133.469 297.81 133.409L297.79 133.389C297.55 133.219 297.49 132.889 297.66 132.649C297.83 132.409 298.16 132.349 298.4 132.519L298.42 132.539C298.66 132.709 298.72 133.039 298.55 133.279C298.45 133.429 298.28 133.509 298.11 133.509V133.499Z" fill="#183B1B"/>
<path d="M298.09 133.479C297.99 133.479 297.88 133.449 297.79 133.389L295.09 131.529C294.27 130.969 293.79 130.039 293.79 129.049C293.79 128.059 294.28 127.129 295.09 126.569L297.81 124.689C298.05 124.519 298.38 124.579 298.55 124.829C298.72 125.069 298.66 125.399 298.41 125.569L295.69 127.449C295.15 127.819 294.85 128.409 294.85 129.059C294.85 129.709 295.16 130.299 295.69 130.669L298.39 132.529C298.63 132.699 298.69 133.029 298.53 133.269C298.43 133.419 298.26 133.499 298.09 133.499V133.479Z" fill="#183B1B"/>
<g filter="url(#filter2_d_4430_1777)">
<path d="M190.78 139.409L344.66 139.409C355.286 139.409 363.9 130.795 363.9 120.169V39.4492C363.9 28.8232 355.286 20.2092 344.66 20.2092L190.78 20.2092C180.154 20.2092 171.54 28.8232 171.54 39.4492V120.169C171.54 130.795 180.154 139.409 190.78 139.409Z" fill="#FEF9F2"/>
</g>
<path d="M297.17 60.0791H262.73C261.394 60.0791 260.31 61.1626 260.31 62.4991C260.31 63.8356 261.394 64.9191 262.73 64.9191H297.17C298.507 64.9191 299.59 63.8356 299.59 62.4991C299.59 61.1626 298.507 60.0791 297.17 60.0791Z" fill="#183B1B"/>
<path d="M348.21 60.0791H308.41C307.074 60.0791 305.99 61.1626 305.99 62.4991C305.99 63.8356 307.074 64.9191 308.41 64.9191H348.21C349.547 64.9191 350.63 63.8356 350.63 62.4991C350.63 61.1626 349.547 60.0791 348.21 60.0791Z" fill="#183B1B"/>
<path d="M348.2 69.7588H262.73C261.394 69.7588 260.31 70.8423 260.31 72.1788C260.31 73.5153 261.394 74.5988 262.73 74.5988H348.2C349.537 74.5988 350.62 73.5153 350.62 72.1788C350.62 70.8423 349.537 69.7588 348.2 69.7588Z" fill="#183B1B"/>
<path d="M324.47 79.4395H262.73C261.394 79.4395 260.31 80.5229 260.31 81.8595C260.31 83.196 261.394 84.2794 262.73 84.2794H324.47C325.807 84.2794 326.89 83.196 326.89 81.8595C326.89 80.5229 325.807 79.4395 324.47 79.4395Z" fill="#183B1B"/>
<path d="M276.44 89.1094H262.73C261.394 89.1094 260.31 90.1928 260.31 91.5294C260.31 92.8659 261.394 93.9494 262.73 93.9494H276.44C277.777 93.9494 278.86 92.8659 278.86 91.5294C278.86 90.1928 277.777 89.1094 276.44 89.1094Z" fill="#183B1B"/>
<path d="M299.43 89.1094H285.72C284.383 89.1094 283.3 90.1928 283.3 91.5294C283.3 92.8659 284.383 93.9494 285.72 93.9494H299.43C300.766 93.9494 301.85 92.8659 301.85 91.5294C301.85 90.1928 300.766 89.1094 299.43 89.1094Z" fill="#183B1B"/>
<path d="M207.74 114.949H234.42C243.599 114.949 251.04 107.508 251.04 98.3292V68.1292C251.04 58.9502 243.599 51.5092 234.42 51.5092L207.74 51.5092C198.561 51.5092 191.12 58.9502 191.12 68.1292V98.3292C191.12 107.508 198.561 114.949 207.74 114.949Z" fill="url(#paint1_linear_4430_1777)"/>
<path d="M212.94 92.8691H219.37H220.66H227.09C231.68 92.8691 235.79 95.6991 237.43 99.9891L242.36 112.929C240.01 114.209 237.31 114.939 234.44 114.939H207.76C204.16 114.939 200.83 113.789 198.11 111.839L202.63 99.9891C204.26 95.6991 208.38 92.8691 212.97 92.8691H212.94Z" fill="#00CE66"/>
<path d="M215.19 92.2493L216.53 86.7393H224.48L225.83 92.2993L226.45 94.8393C225.24 95.4993 223 95.9393 220.44 95.9393C217.88 95.9393 215.77 95.5193 214.54 94.8993L215.18 92.2493H215.19Z" fill="#875151"/>
<path d="M220.51 89.9589C226.458 89.9589 231.28 85.1371 231.28 79.1889C231.28 73.2408 226.458 68.4189 220.51 68.4189C214.562 68.4189 209.74 73.2408 209.74 79.1889C209.74 85.1371 214.562 89.9589 220.51 89.9589Z" fill="#875151"/>
<path d="M217.23 83.8083C218.26 84.1383 219.37 84.3183 220.51 84.3183C221.65 84.3183 222.82 84.1283 223.88 83.7783" stroke="#6A3636" stroke-width="0.5" stroke-linecap="round" stroke-linejoin="round"/>
<path d="M220.51 68.4189C225.71 68.4189 230.06 72.1089 231.06 77.0189C230.18 75.7489 229.39 74.4189 228.61 73.0789C228.27 72.4989 227.64 72.1089 226.92 72.1089H214.5C213.78 72.1089 213.15 72.4989 212.81 73.0789C211.89 74.6489 210.97 76.2089 209.89 77.6789L209.84 77.7389C210.55 72.4789 215.06 68.4189 220.51 68.4189Z" fill="#183B1B"/>
<path d="M210.18 76.139V59.669C210.18 58.309 211.28 57.209 212.64 57.209H228.21C229.57 57.209 230.67 58.309 230.67 59.669V75.599C230.83 76.059 230.96 76.529 231.06 77.009C230.86 76.719 230.67 76.429 230.48 76.139C229.83 75.139 229.22 74.109 228.61 73.069C228.27 72.489 227.64 72.099 226.92 72.099H214.5C213.78 72.099 213.15 72.489 212.81 73.069C212.2 74.099 211.6 75.139 210.94 76.139C210.6 76.659 210.26 77.169 209.89 77.669L209.84 77.729C209.91 77.189 210.03 76.649 210.18 76.139Z" fill="#183B1B"/>
<path d="M208.664 81.2044C208.743 81.8514 209.33 82.3125 209.977 82.2343C210.624 82.1562 211.086 81.5683 211.007 80.9213L210.478 76.5431C210.4 75.8961 209.812 75.435 209.165 75.5132C208.518 75.5914 208.057 76.1793 208.135 76.8263L208.664 81.2044Z" fill="#875151"/>
<path d="M229.846 80.936C229.768 81.583 230.229 82.1709 230.876 82.2491C231.523 82.3272 232.111 81.8661 232.189 81.2191L232.718 76.841C232.797 76.194 232.336 75.6061 231.689 75.528C231.042 75.4498 230.454 75.9109 230.375 76.5579L229.846 80.936Z" fill="#875151"/>
<path d="M231.77 81.0393V81.0593C231.77 81.0593 231.7 81.0993 231.67 81.0793H231.66C231.66 81.0793 231.57 81.0593 231.56 81.1093V81.1293C231.56 81.1293 231.51 81.1893 231.47 81.1793H231.45C231.45 81.1793 231.36 81.1993 231.37 81.2393V81.2593C231.37 81.2593 231.35 81.3293 231.31 81.3293H231.29C231.29 81.3293 231.21 81.3793 231.24 81.4193C231.24 81.4193 231.24 81.5093 231.21 81.5293H231.19C231.19 81.5293 231.13 81.6093 231.17 81.6393H231.18C231.18 81.6393 231.21 81.7193 231.18 81.7493H231.17C231.17 81.7493 231.14 81.8493 231.19 81.8693H231.21C231.21 81.8693 231.26 81.9293 231.24 81.9693C231.21 82.0293 231.24 82.0793 231.29 82.0793H231.31C231.31 82.0793 231.38 82.1093 231.37 82.1493V82.1693C231.37 82.1693 231.4 82.2593 231.45 82.2393H231.47C231.47 82.2393 231.55 82.2393 231.55 82.2793V82.2993C231.55 82.2993 231.62 82.3693 231.66 82.3393H231.67C231.67 82.3393 231.75 82.3093 231.77 82.3393V82.3593C231.77 82.3593 231.86 82.3993 231.89 82.3593V82.3393C231.89 82.3393 231.96 82.2993 231.99 82.3193H232C232 82.3193 232.09 82.3393 232.1 82.2893V82.2693C232.1 82.2693 232.15 82.2093 232.19 82.2193H232.21C232.21 82.2193 232.3 82.1993 232.29 82.1593V82.1393C232.29 82.1393 232.31 82.0693 232.35 82.0693H232.37C232.37 82.0693 232.45 82.0193 232.42 81.9793C232.42 81.9793 232.42 81.8893 232.45 81.8693H232.47C232.47 81.8693 232.53 81.7893 232.49 81.7593H232.48C232.48 81.7593 232.45 81.6793 232.48 81.6493H232.49C232.49 81.6493 232.52 81.5493 232.47 81.5293H232.45C232.45 81.5293 232.4 81.4693 232.42 81.4293C232.45 81.3693 232.42 81.3193 232.37 81.3193H232.35C232.35 81.3193 232.28 81.2893 232.29 81.2493V81.2293C232.29 81.2293 232.26 81.1393 232.21 81.1593H232.19C232.19 81.1593 232.11 81.1593 232.11 81.1193V81.0993C232.11 81.0993 232.04 81.0293 232 81.0593H231.99C231.99 81.0593 231.91 81.0893 231.89 81.0593V81.0393C231.89 81.0393 231.8 80.9993 231.77 81.0393Z" fill="#FEDD00"/>
<path d="M209.29 81.0393V81.0593C209.29 81.0593 209.22 81.0993 209.19 81.0793H209.18C209.18 81.0793 209.09 81.0593 209.08 81.1093V81.1293C209.08 81.1293 209.03 81.1893 208.99 81.1793H208.97C208.97 81.1793 208.88 81.1993 208.89 81.2393V81.2593C208.89 81.2593 208.87 81.3293 208.83 81.3293H208.81C208.81 81.3293 208.73 81.3793 208.76 81.4193C208.76 81.4193 208.76 81.5093 208.73 81.5293H208.71C208.71 81.5293 208.65 81.6093 208.69 81.6393H208.7C208.7 81.6393 208.73 81.7193 208.7 81.7493H208.69C208.69 81.7493 208.66 81.8493 208.71 81.8693H208.73C208.73 81.8693 208.78 81.9293 208.76 81.9693C208.73 82.0293 208.76 82.0793 208.81 82.0793H208.83C208.83 82.0793 208.9 82.1093 208.89 82.1493V82.1693C208.89 82.1693 208.92 82.2593 208.97 82.2393H208.99C208.99 82.2393 209.07 82.2393 209.07 82.2793V82.2993C209.07 82.2993 209.14 82.3693 209.18 82.3393H209.19C209.19 82.3393 209.27 82.3093 209.29 82.3393V82.3593C209.29 82.3593 209.38 82.3993 209.41 82.3593V82.3393C209.41 82.3393 209.48 82.2993 209.51 82.3193H209.52C209.52 82.3193 209.61 82.3393 209.62 82.2893V82.2693C209.62 82.2693 209.67 82.2093 209.71 82.2193H209.73C209.73 82.2193 209.82 82.1993 209.81 82.1593V82.1393C209.81 82.1393 209.83 82.0693 209.87 82.0693H209.89C209.89 82.0693 209.97 82.0193 209.94 81.9793C209.94 81.9793 209.94 81.8893 209.97 81.8693H209.99C209.99 81.8693 210.05 81.7893 210.01 81.7593H210C210 81.7593 209.97 81.6793 210 81.6493H210.01C210.01 81.6493 210.04 81.5493 209.99 81.5293H209.97C209.97 81.5293 209.92 81.4693 209.94 81.4293C209.97 81.3693 209.94 81.3193 209.89 81.3193H209.87C209.87 81.3193 209.8 81.2893 209.81 81.2493V81.2293C209.81 81.2293 209.78 81.1393 209.73 81.1593H209.71C209.71 81.1593 209.63 81.1593 209.63 81.1193V81.0993C209.63 81.0993 209.56 81.0293 209.52 81.0593H209.51C209.51 81.0593 209.43 81.0893 209.41 81.0593V81.0393C209.41 81.0393 209.32 80.9993 209.29 81.0393Z" fill="#FEDD00"/>
<path d="M357.3 38.2988H178.14V47.0188H357.3V38.2988Z" fill="#547CF1"/>
<path d="M211.31 26.6895H189.36C187.217 26.6895 185.48 28.4243 185.48 30.5645C185.48 32.7046 187.217 34.4395 189.36 34.4395H211.31C213.453 34.4395 215.19 32.7046 215.19 30.5645C215.19 28.4243 213.453 26.6895 211.31 26.6895Z" fill="#183B1B"/>
<path d="M241.46 28.1992H227.75C226.414 28.1992 225.33 29.2827 225.33 30.6192C225.33 31.9557 226.414 33.0392 227.75 33.0392H241.46C242.797 33.0392 243.88 31.9557 243.88 30.6192C243.88 29.2827 242.797 28.1992 241.46 28.1992Z" fill="#183B1B"/>
<g filter="url(#filter3_d_4430_1777)">
<path d="M241.7 140.569L395.58 140.569C406.206 140.569 414.82 131.955 414.82 121.329V40.6093C414.82 29.9834 406.206 21.3693 395.58 21.3693L241.7 21.3693C231.074 21.3693 222.46 29.9834 222.46 40.6093V121.329C222.46 131.955 231.074 140.569 241.7 140.569Z" fill="#FFDE00"/>
</g>
<path d="M345.48 56.249H311.04C309.704 56.249 308.62 57.3325 308.62 58.669C308.62 60.0056 309.704 61.089 311.04 61.089H345.48C346.817 61.089 347.9 60.0056 347.9 58.669C347.9 57.3325 346.817 56.249 345.48 56.249Z" fill="#183B1B"/>
<path d="M396.51 65.9287H311.04C309.704 65.9287 308.62 67.0122 308.62 68.3487C308.62 69.6852 309.704 70.7687 311.04 70.7687H396.51C397.847 70.7687 398.93 69.6852 398.93 68.3487C398.93 67.0122 397.847 65.9287 396.51 65.9287Z" fill="#183B1B"/>
<path d="M372.78 75.5986H311.04C309.704 75.5986 308.62 76.6821 308.62 78.0186C308.62 79.3552 309.704 80.4386 311.04 80.4386H372.78C374.117 80.4386 375.2 79.3552 375.2 78.0186C375.2 76.6821 374.117 75.5986 372.78 75.5986Z" fill="#183B1B"/>
<path d="M324.75 85.2793H311.04C309.704 85.2793 308.62 86.3628 308.62 87.6993C308.62 89.0358 309.704 90.1193 311.04 90.1193H324.75C326.087 90.1193 327.17 89.0358 327.17 87.6993C327.17 86.3628 326.087 85.2793 324.75 85.2793Z" fill="#183B1B"/>
<path d="M347.73 85.2793H334.02C332.684 85.2793 331.6 86.3628 331.6 87.6993C331.6 89.0358 332.684 90.1193 334.02 90.1193H347.73C349.067 90.1193 350.15 89.0358 350.15 87.6993C350.15 86.3628 349.067 85.2793 347.73 85.2793Z" fill="#183B1B"/>
<path d="M256.04 111.119H282.72C291.899 111.119 299.34 103.678 299.34 94.4991V64.2991C299.34 55.1202 291.899 47.6791 282.72 47.6791L256.04 47.6791C246.861 47.6791 239.42 55.1202 239.42 64.2991V94.4991C239.42 103.678 246.861 111.119 256.04 111.119Z" fill="url(#paint2_linear_4430_1777)"/>
<path d="M261.24 89.0391H267.67H268.96H275.39C279.98 89.0391 284.09 91.8691 285.73 96.1591L290.66 109.099C288.31 110.379 285.61 111.109 282.74 111.109H256.06C252.46 111.109 249.13 109.959 246.41 108.009L250.93 96.1591C252.56 91.8691 256.68 89.0391 261.27 89.0391H261.24Z" fill="#00CE66"/>
<path d="M263.49 88.4192L264.83 82.9092H272.78L274.13 88.4692L274.75 91.0092C273.54 91.6692 271.3 92.1092 268.74 92.1092C266.18 92.1092 264.07 91.6892 262.84 91.0692L263.48 88.4192H263.49Z" fill="#875151"/>
<path d="M268.82 86.1191C274.768 86.1191 279.59 81.2972 279.59 75.3491C279.59 69.401 274.768 64.5791 268.82 64.5791C262.872 64.5791 258.05 69.401 258.05 75.3491C258.05 81.2972 262.872 86.1191 268.82 86.1191Z" fill="#875151"/>
<path d="M265.53 79.9782C266.56 80.3082 267.67 80.4882 268.81 80.4882C269.95 80.4882 271.12 80.2982 272.18 79.9482" stroke="#6A3636" stroke-width="0.5" stroke-linecap="round" stroke-linejoin="round"/>
<path d="M268.82 64.5791C274.02 64.5791 278.37 68.2691 279.37 73.1791C278.49 71.9091 277.7 70.5791 276.92 69.2391C276.58 68.6591 275.95 68.2691 275.23 68.2691H262.81C262.09 68.2691 261.46 68.6591 261.12 69.2391C260.2 70.8091 259.28 72.3691 258.2 73.8391L258.15 73.8991C258.86 68.6391 263.37 64.5791 268.82 64.5791Z" fill="#183B1B"/>
<path d="M258.49 72.3089V55.8389C258.49 54.4789 259.59 53.3789 260.95 53.3789H276.52C277.88 53.3789 278.98 54.4789 278.98 55.8389V71.7689C279.14 72.2289 279.27 72.6989 279.37 73.1789C279.17 72.8889 278.98 72.5989 278.79 72.3089C278.14 71.3089 277.53 70.2789 276.92 69.2389C276.58 68.6589 275.95 68.2689 275.23 68.2689H262.81C262.09 68.2689 261.46 68.6589 261.12 69.2389C260.51 70.2689 259.91 71.3089 259.25 72.3089C258.91 72.8289 258.57 73.3389 258.2 73.8389L258.15 73.8989C258.22 73.3589 258.34 72.8189 258.49 72.3089Z" fill="#183B1B"/>
<path d="M256.973 77.3714C257.051 78.0184 257.639 78.4795 258.286 78.4013C258.933 78.3231 259.394 77.7353 259.316 77.0883L258.787 72.7101C258.708 72.0631 258.121 71.602 257.474 71.6802C256.827 71.7584 256.366 72.3463 256.444 72.9933L256.973 77.3714Z" fill="#875151"/>
<path d="M278.146 77.103C278.068 77.75 278.529 78.3379 279.176 78.4161C279.823 78.4942 280.411 78.0331 280.489 77.3861L281.018 73.008C281.096 72.361 280.635 71.7731 279.988 71.695C279.341 71.6168 278.753 72.0779 278.675 72.7249L278.146 77.103Z" fill="#875151"/>
<path d="M280.07 77.1984V77.2184C280.07 77.2184 280 77.2584 279.97 77.2384H279.96C279.96 77.2384 279.87 77.2184 279.86 77.2684V77.2884C279.86 77.2884 279.81 77.3484 279.77 77.3384H279.75C279.75 77.3384 279.66 77.3584 279.67 77.3984V77.4184C279.67 77.4184 279.65 77.4884 279.61 77.4884H279.59C279.59 77.4884 279.51 77.5384 279.54 77.5784C279.54 77.5784 279.54 77.6684 279.51 77.6884H279.49C279.49 77.6884 279.43 77.7684 279.47 77.7984H279.48C279.48 77.7984 279.51 77.8784 279.48 77.9084H279.47C279.47 77.9084 279.44 78.0084 279.49 78.0284H279.51C279.51 78.0284 279.56 78.0884 279.54 78.1284C279.51 78.1884 279.54 78.2384 279.59 78.2384H279.61C279.61 78.2384 279.68 78.2684 279.67 78.3084V78.3284C279.67 78.3284 279.7 78.4184 279.75 78.3984H279.77C279.77 78.3984 279.85 78.3984 279.85 78.4384V78.4584C279.85 78.4584 279.92 78.5284 279.96 78.4984H279.97C279.97 78.4984 280.05 78.4684 280.07 78.4984V78.5184C280.07 78.5184 280.16 78.5584 280.19 78.5184V78.4984C280.19 78.4984 280.26 78.4584 280.29 78.4784H280.3C280.3 78.4784 280.39 78.4984 280.4 78.4484V78.4284C280.4 78.4284 280.45 78.3684 280.49 78.3784H280.51C280.51 78.3784 280.6 78.3584 280.59 78.3184V78.2984C280.59 78.2984 280.61 78.2284 280.65 78.2284H280.67C280.67 78.2284 280.75 78.1784 280.72 78.1384C280.72 78.1384 280.72 78.0484 280.75 78.0284H280.77C280.77 78.0284 280.83 77.9484 280.79 77.9184H280.78C280.78 77.9184 280.75 77.8384 280.78 77.8084H280.79C280.79 77.8084 280.82 77.7084 280.77 77.6884H280.75C280.75 77.6884 280.7 77.6284 280.72 77.5884C280.75 77.5284 280.72 77.4784 280.67 77.4784H280.65C280.65 77.4784 280.58 77.4484 280.59 77.4084V77.3884C280.59 77.3884 280.56 77.2984 280.51 77.3184H280.49C280.49 77.3184 280.41 77.3184 280.41 77.2784V77.2584C280.41 77.2584 280.34 77.1884 280.3 77.2184H280.29C280.29 77.2184 280.21 77.2484 280.19 77.2184V77.1984C280.19 77.1984 280.1 77.1584 280.07 77.1984Z" fill="#FEDD00"/>
<path d="M257.6 77.1984V77.2184C257.6 77.2184 257.53 77.2584 257.5 77.2384H257.49C257.49 77.2384 257.4 77.2184 257.39 77.2684V77.2884C257.39 77.2884 257.34 77.3484 257.3 77.3384H257.28C257.28 77.3384 257.19 77.3584 257.2 77.3984V77.4184C257.2 77.4184 257.18 77.4884 257.14 77.4884H257.12C257.12 77.4884 257.04 77.5384 257.07 77.5784C257.07 77.5784 257.07 77.6684 257.04 77.6884H257.02C257.02 77.6884 256.96 77.7684 257 77.7984H257.01C257.01 77.7984 257.04 77.8784 257.01 77.9084H257C257 77.9084 256.97 78.0084 257.02 78.0284H257.04C257.04 78.0284 257.09 78.0884 257.07 78.1284C257.04 78.1884 257.07 78.2384 257.12 78.2384H257.14C257.14 78.2384 257.21 78.2684 257.2 78.3084V78.3284C257.2 78.3284 257.23 78.4184 257.28 78.3984H257.3C257.3 78.3984 257.38 78.3984 257.38 78.4384V78.4584C257.38 78.4584 257.45 78.5284 257.49 78.4984H257.5C257.5 78.4984 257.58 78.4684 257.6 78.4984V78.5184C257.6 78.5184 257.69 78.5584 257.72 78.5184V78.4984C257.72 78.4984 257.79 78.4584 257.82 78.4784H257.83C257.83 78.4784 257.92 78.4984 257.93 78.4484V78.4284C257.93 78.4284 257.98 78.3684 258.02 78.3784H258.04C258.04 78.3784 258.13 78.3584 258.12 78.3184V78.2984C258.12 78.2984 258.14 78.2284 258.18 78.2284H258.2C258.2 78.2284 258.28 78.1784 258.25 78.1384C258.25 78.1384 258.25 78.0484 258.28 78.0284H258.3C258.3 78.0284 258.36 77.9484 258.32 77.9184H258.31C258.31 77.9184 258.28 77.8384 258.31 77.8084H258.32C258.32 77.8084 258.35 77.7084 258.3 77.6884H258.28C258.28 77.6884 258.23 77.6284 258.25 77.5884C258.28 77.5284 258.25 77.4784 258.2 77.4784H258.18C258.18 77.4784 258.11 77.4484 258.12 77.4084V77.3884C258.12 77.3884 258.09 77.2984 258.04 77.3184H258.02C258.02 77.3184 257.94 77.3184 257.94 77.2784V77.2584C257.94 77.2584 257.87 77.1884 257.83 77.2184H257.82C257.82 77.2184 257.74 77.2484 257.72 77.2184V77.1984C257.72 77.1984 257.63 77.1584 257.6 77.1984Z" fill="#FEDD00"/>
<g filter="url(#filter4_d_4430_1777)">
<path d="M290.4 139.409L444.28 139.409C454.906 139.409 463.52 130.795 463.52 120.169V39.4492C463.52 28.8232 454.906 20.2092 444.28 20.2092L290.4 20.2092C279.774 20.2092 271.16 28.8232 271.16 39.4492V120.169C271.16 130.795 279.774 139.409 290.4 139.409Z" fill="#FEC3C9"/>
</g>
<path d="M307.36 114.949H334.04C343.219 114.949 350.66 107.508 350.66 98.3292V68.1292C350.66 58.9502 343.219 51.5092 334.04 51.5092L307.36 51.5092C298.181 51.5092 290.74 58.9502 290.74 68.1292V98.3292C290.74 107.508 298.181 114.949 307.36 114.949Z" fill="url(#paint3_linear_4430_1777)"/>
<path d="M312.56 92.8691H318.99H320.28H326.71C331.3 92.8691 335.41 95.6991 337.05 99.9891L341.98 112.929C339.63 114.209 336.93 114.939 334.06 114.939H307.38C303.78 114.939 300.45 113.789 297.73 111.839L302.25 99.9891C303.88 95.6991 308 92.8691 312.59 92.8691H312.56Z" fill="#00CE66"/>
<path d="M314.81 92.2493L316.15 86.7393H324.1L325.45 92.2993L326.07 94.8393C324.86 95.4993 322.62 95.9393 320.06 95.9393C317.5 95.9393 315.39 95.5193 314.16 94.8993L314.8 92.2493H314.81Z" fill="#875151"/>
<path d="M320.14 89.9589C326.088 89.9589 330.91 85.1371 330.91 79.1889C330.91 73.2408 326.088 68.4189 320.14 68.4189C314.192 68.4189 309.37 73.2408 309.37 79.1889C309.37 85.1371 314.192 89.9589 320.14 89.9589Z" fill="#875151"/>
<path d="M316.85 83.8083C317.88 84.1383 318.99 84.3183 320.13 84.3183C321.27 84.3183 322.44 84.1283 323.5 83.7783" stroke="#6A3636" stroke-width="0.5" stroke-linecap="round" stroke-linejoin="round"/>
<path d="M320.14 68.4189C325.34 68.4189 329.69 72.1089 330.69 77.0189C329.81 75.7489 329.02 74.4189 328.24 73.0789C327.9 72.4989 327.27 72.1089 326.55 72.1089H314.13C313.41 72.1089 312.78 72.4989 312.44 73.0789C311.52 74.6489 310.6 76.2089 309.52 77.6789L309.47 77.7389C310.18 72.4789 314.69 68.4189 320.14 68.4189Z" fill="#183B1B"/>
<path d="M309.81 76.139V59.669C309.81 58.309 310.91 57.209 312.27 57.209H327.84C329.2 57.209 330.3 58.309 330.3 59.669V75.599C330.46 76.059 330.59 76.529 330.69 77.009C330.49 76.719 330.3 76.429 330.11 76.139C329.46 75.139 328.85 74.109 328.24 73.069C327.9 72.489 327.27 72.099 326.55 72.099H314.13C313.41 72.099 312.78 72.489 312.44 73.069C311.83 74.099 311.23 75.139 310.57 76.139C310.23 76.659 309.89 77.169 309.52 77.669L309.47 77.729C309.54 77.189 309.66 76.649 309.81 76.139Z" fill="#183B1B"/>
<path d="M308.294 81.2054C308.372 81.8524 308.96 82.3135 309.607 82.2353C310.254 82.1571 310.715 81.5693 310.637 80.9223L310.108 76.5441C310.03 75.8971 309.442 75.436 308.795 75.5142C308.148 75.5924 307.687 76.1802 307.765 76.8272L308.294 81.2054Z" fill="#875151"/>
<path d="M329.466 80.9438C329.388 81.5908 329.849 82.1787 330.496 82.2569C331.143 82.3351 331.731 81.8739 331.809 81.227L332.338 76.8488C332.416 76.2018 331.955 75.6139 331.308 75.5358C330.661 75.4576 330.073 75.9187 329.995 76.5657L329.466 80.9438Z" fill="#875151"/>
<path d="M331.39 81.0393V81.0593C331.39 81.0593 331.32 81.0993 331.29 81.0793H331.28C331.28 81.0793 331.19 81.0593 331.18 81.1093V81.1293C331.18 81.1293 331.13 81.1893 331.09 81.1793H331.07C331.07 81.1793 330.98 81.1993 330.99 81.2393V81.2593C330.99 81.2593 330.97 81.3293 330.93 81.3293H330.91C330.91 81.3293 330.83 81.3793 330.86 81.4193C330.86 81.4193 330.86 81.5093 330.83 81.5293H330.81C330.81 81.5293 330.75 81.6093 330.79 81.6393H330.8C330.8 81.6393 330.83 81.7193 330.8 81.7493H330.79C330.79 81.7493 330.76 81.8493 330.81 81.8693H330.83C330.83 81.8693 330.88 81.9293 330.86 81.9693C330.83 82.0293 330.86 82.0793 330.91 82.0793H330.93C330.93 82.0793 331 82.1093 330.99 82.1493V82.1693C330.99 82.1693 331.02 82.2593 331.07 82.2393H331.09C331.09 82.2393 331.17 82.2393 331.17 82.2793V82.2993C331.17 82.2993 331.24 82.3693 331.28 82.3393H331.29C331.29 82.3393 331.37 82.3093 331.39 82.3393V82.3593C331.39 82.3593 331.48 82.3993 331.51 82.3593V82.3393C331.51 82.3393 331.58 82.2993 331.61 82.3193H331.62C331.62 82.3193 331.71 82.3393 331.72 82.2893V82.2693C331.72 82.2693 331.77 82.2093 331.81 82.2193H331.83C331.83 82.2193 331.92 82.1993 331.91 82.1593V82.1393C331.91 82.1393 331.93 82.0693 331.97 82.0693H331.99C331.99 82.0693 332.07 82.0193 332.04 81.9793C332.04 81.9793 332.04 81.8893 332.07 81.8693H332.09C332.09 81.8693 332.15 81.7893 332.11 81.7593H332.1C332.1 81.7593 332.07 81.6793 332.1 81.6493H332.11C332.11 81.6493 332.14 81.5493 332.09 81.5293H332.07C332.07 81.5293 332.02 81.4693 332.04 81.4293C332.07 81.3693 332.04 81.3193 331.99 81.3193H331.97C331.97 81.3193 331.9 81.2893 331.91 81.2493V81.2293C331.91 81.2293 331.88 81.1393 331.83 81.1593H331.81C331.81 81.1593 331.73 81.1593 331.73 81.1193V81.0993C331.73 81.0993 331.66 81.0293 331.62 81.0593H331.61C331.61 81.0593 331.53 81.0893 331.51 81.0593V81.0393C331.51 81.0393 331.42 80.9993 331.39 81.0393Z" fill="#FEDD00"/>
<path d="M308.92 81.0393V81.0593C308.92 81.0593 308.85 81.0993 308.82 81.0793H308.81C308.81 81.0793 308.72 81.0593 308.71 81.1093V81.1293C308.71 81.1293 308.66 81.1893 308.62 81.1793H308.6C308.6 81.1793 308.51 81.1993 308.52 81.2393V81.2593C308.52 81.2593 308.5 81.3293 308.46 81.3293H308.44C308.44 81.3293 308.36 81.3793 308.39 81.4193C308.39 81.4193 308.39 81.5093 308.36 81.5293H308.34C308.34 81.5293 308.28 81.6093 308.32 81.6393H308.33C308.33 81.6393 308.36 81.7193 308.33 81.7493H308.32C308.32 81.7493 308.29 81.8493 308.34 81.8693H308.36C308.36 81.8693 308.41 81.9293 308.39 81.9693C308.36 82.0293 308.39 82.0793 308.44 82.0793H308.46C308.46 82.0793 308.53 82.1093 308.52 82.1493V82.1693C308.52 82.1693 308.55 82.2593 308.6 82.2393H308.62C308.62 82.2393 308.7 82.2393 308.7 82.2793V82.2993C308.7 82.2993 308.77 82.3693 308.81 82.3393H308.82C308.82 82.3393 308.9 82.3093 308.92 82.3393V82.3593C308.92 82.3593 309.01 82.3993 309.04 82.3593V82.3393C309.04 82.3393 309.11 82.2993 309.14 82.3193H309.15C309.15 82.3193 309.24 82.3393 309.25 82.2893V82.2693C309.25 82.2693 309.3 82.2093 309.34 82.2193H309.36C309.36 82.2193 309.45 82.1993 309.44 82.1593V82.1393C309.44 82.1393 309.46 82.0693 309.5 82.0693H309.52C309.52 82.0693 309.6 82.0193 309.57 81.9793C309.57 81.9793 309.57 81.8893 309.6 81.8693H309.62C309.62 81.8693 309.68 81.7893 309.64 81.7593H309.63C309.63 81.7593 309.6 81.6793 309.63 81.6493H309.64C309.64 81.6493 309.67 81.5493 309.62 81.5293H309.6C309.6 81.5293 309.55 81.4693 309.57 81.4293C309.6 81.3693 309.57 81.3193 309.52 81.3193H309.5C309.5 81.3193 309.43 81.2893 309.44 81.2493V81.2293C309.44 81.2293 309.41 81.1393 309.36 81.1593H309.34C309.34 81.1593 309.26 81.1593 309.26 81.1193V81.0993C309.26 81.0993 309.19 81.0293 309.15 81.0593H309.14C309.14 81.0593 309.06 81.0893 309.04 81.0593V81.0393C309.04 81.0393 308.95 80.9993 308.92 81.0393Z" fill="#FEDD00"/>
<path d="M456.93 38.2988H277.77V47.0188H456.93V38.2988Z" fill="#547CF1"/>
<path d="M310.94 26.6895H288.99C286.847 26.6895 285.11 28.4243 285.11 30.5645C285.11 32.7046 286.847 34.4395 288.99 34.4395H310.94C313.083 34.4395 314.82 32.7046 314.82 30.5645C314.82 28.4243 313.083 26.6895 310.94 26.6895Z" fill="#183B1B"/>
<path d="M341.08 28.1992H327.37C326.034 28.1992 324.95 29.2827 324.95 30.6192C324.95 31.9557 326.034 33.0392 327.37 33.0392H341.08C342.417 33.0392 343.5 31.9557 343.5 30.6192C343.5 29.2827 342.417 28.1992 341.08 28.1992Z" fill="#183B1B"/>
</g>
</g>
<defs>
<filter id="filter0_d_4430_1777" x="120.27" y="18.4795" width="200.44" height="127.28" filterUnits="userSpaceOnUse" color-interpolation-filters="sRGB">
<feFlood flood-opacity="0" result="BackgroundImageFix"/>
<feColorMatrix in="SourceAlpha" type="matrix" values="0 0 0 0 0 0 0 0 0 0 0 0 0 0 0 0 0 0 127 0" result="hardAlpha"/>
<feOffset dx="-2.83" dy="2.83"/>
<feGaussianBlur stdDeviation="2.02"/>
<feColorMatrix type="matrix" values="0 0 0 0 0 0 0 0 0 0 0 0 0 0 0 0 0 0 0.15 0"/>
<feBlend mode="normal" in2="BackgroundImageFix" result="effect1_dropShadow_4430_1777"/>
<feBlend mode="normal" in="SourceGraphic" in2="effect1_dropShadow_4430_1777" result="shape"/>
</filter>
<filter id="filter1_d_4430_1777" x="121.02" y="-99.5205" width="200.44" height="127.28" filterUnits="userSpaceOnUse" color-interpolation-filters="sRGB">
<feFlood flood-opacity="0" result="BackgroundImageFix"/>
<feColorMatrix in="SourceAlpha" type="matrix" values="0 0 0 0 0 0 0 0 0 0 0 0 0 0 0 0 0 0 127 0" result="hardAlpha"/>
<feOffset dx="-2.83" dy="2.83"/>
<feGaussianBlur stdDeviation="2.02"/>
<feColorMatrix type="matrix" values="0 0 0 0 0 0 0 0 0 0 0 0 0 0 0 0 0 0 0.15 0"/>
<feBlend mode="normal" in2="BackgroundImageFix" result="effect1_dropShadow_4430_1777"/>
<feBlend mode="normal" in="SourceGraphic" in2="effect1_dropShadow_4430_1777" result="shape"/>
</filter>
<filter id="filter2_d_4430_1777" x="164.67" y="18.999" width="200.44" height="127.28" filterUnits="userSpaceOnUse" color-interpolation-filters="sRGB">
<feFlood flood-opacity="0" result="BackgroundImageFix"/>
<feColorMatrix in="SourceAlpha" type="matrix" values="0 0 0 0 0 0 0 0 0 0 0 0 0 0 0 0 0 0 127 0" result="hardAlpha"/>
<feOffset dx="-2.83" dy="2.83"/>
<feGaussianBlur stdDeviation="2.02"/>
<feColorMatrix type="matrix" values="0 0 0 0 0 0 0 0 0 0 0 0 0 0 0 0 0 0 0.15 0"/>
<feBlend mode="normal" in2="BackgroundImageFix" result="effect1_dropShadow_4430_1777"/>
<feBlend mode="normal" in="SourceGraphic" in2="effect1_dropShadow_4430_1777" result="shape"/>
</filter>
<filter id="filter3_d_4430_1777" x="215.59" y="20.1591" width="200.44" height="127.28" filterUnits="userSpaceOnUse" color-interpolation-filters="sRGB">
<feFlood flood-opacity="0" result="BackgroundImageFix"/>
<feColorMatrix in="SourceAlpha" type="matrix" values="0 0 0 0 0 0 0 0 0 0 0 0 0 0 0 0 0 0 127 0" result="hardAlpha"/>
<feOffset dx="-2.83" dy="2.83"/>
<feGaussianBlur stdDeviation="2.02"/>
<feColorMatrix type="matrix" values="0 0 0 0 0 0 0 0 0 0 0 0 0 0 0 0 0 0 0.15 0"/>
<feBlend mode="normal" in2="BackgroundImageFix" result="effect1_dropShadow_4430_1777"/>
<feBlend mode="normal" in="SourceGraphic" in2="effect1_dropShadow_4430_1777" result="shape"/>
</filter>
<filter id="filter4_d_4430_1777" x="264.29" y="18.999" width="200.44" height="127.28" filterUnits="userSpaceOnUse" color-interpolation-filters="sRGB">
<feFlood flood-opacity="0" result="BackgroundImageFix"/>
<feColorMatrix in="SourceAlpha" type="matrix" values="0 0 0 0 0 0 0 0 0 0 0 0 0 0 0 0 0 0 127 0" result="hardAlpha"/>
<feOffset dx="-2.83" dy="2.83"/>
<feGaussianBlur stdDeviation="2.02"/>
<feColorMatrix type="matrix" values="0 0 0 0 0 0 0 0 0 0 0 0 0 0 0 0 0 0 0.15 0"/>
<feBlend mode="normal" in2="BackgroundImageFix" result="effect1_dropShadow_4430_1777"/>
<feBlend mode="normal" in="SourceGraphic" in2="effect1_dropShadow_4430_1777" result="shape"/>
</filter>
<linearGradient id="paint0_linear_4430_1777" x1="204.04" y1="77.7099" x2="144.12" y2="77.7099" gradientUnits="userSpaceOnUse">
<stop stop-color="#FF4F59"/>
<stop offset="0.51" stop-color="#FF505A"/>
<stop offset="0.69" stop-color="#FF5761"/>
<stop offset="0.82" stop-color="#FF626D"/>
<stop offset="0.93" stop-color="#FF727E"/>
<stop offset="1" stop-color="#FF838F"/>
</linearGradient>
<linearGradient id="paint1_linear_4430_1777" x1="251.03" y1="83.2292" x2="191.12" y2="83.2292" gradientUnits="userSpaceOnUse">
<stop stop-color="#FF4F59"/>
<stop offset="0.51" stop-color="#FF505A"/>
<stop offset="0.69" stop-color="#FF5761"/>
<stop offset="0.82" stop-color="#FF626D"/>
<stop offset="0.93" stop-color="#FF727E"/>
<stop offset="1" stop-color="#FF838F"/>
</linearGradient>
<linearGradient id="paint2_linear_4430_1777" x1="299.34" y1="79.3891" x2="239.42" y2="79.3891" gradientUnits="userSpaceOnUse">
<stop stop-color="#FF4F59"/>
<stop offset="0.51" stop-color="#FF505A"/>
<stop offset="0.69" stop-color="#FF5761"/>
<stop offset="0.82" stop-color="#FF626D"/>
<stop offset="0.93" stop-color="#FF727E"/>
<stop offset="1" stop-color="#FF838F"/>
</linearGradient>
<linearGradient id="paint3_linear_4430_1777" x1="350.66" y1="83.2292" x2="290.74" y2="83.2292" gradientUnits="userSpaceOnUse">
<stop stop-color="#FF4F59"/>
<stop offset="0.51" stop-color="#FF505A"/>
<stop offset="0.69" stop-color="#FF5761"/>
<stop offset="0.82" stop-color="#FF626D"/>
<stop offset="0.93" stop-color="#FF727E"/>
<stop offset="1" stop-color="#FF838F"/>
</linearGradient>
<clipPath id="clip0_4430_1777">
<rect width="345" height="159" rx="12" fill="white"/>
</clipPath>
</defs>
</svg>
