<svg width="345" height="159" viewBox="0 0 345 159" fill="none" xmlns="http://www.w3.org/2000/svg">
<g clip-path="url(#clip0_4430_1647)">
<path d="M333 0H12C5.37258 0 0 5.37258 0 12V147C0 153.627 5.37258 159 12 159H333C339.627 159 345 153.627 345 147V12C345 5.37258 339.627 0 333 0Z" fill="#6A3636"/>
<g filter="url(#filter0_d_4430_1647)">
<path d="M244.56 21.1904H92.6502C82.1623 21.1904 73.6602 29.6925 73.6602 40.1804V119.87C73.6602 130.358 82.1623 138.86 92.6502 138.86H244.56C255.048 138.86 263.55 130.358 263.55 119.87V40.1804C263.55 29.6925 255.048 21.1904 244.56 21.1904Z" fill="#FEF9F2"/>
<path d="M125.72 55.6201H91.7202C90.4002 55.6201 89.3302 56.6902 89.3302 58.0101C89.3302 59.3301 90.4002 60.4001 91.7202 60.4001H125.72C127.04 60.4001 128.11 59.3301 128.11 58.0101C128.11 56.6902 127.04 55.6201 125.72 55.6201Z" fill="#183B1B"/>
<path d="M176.1 55.6201H136.81C135.49 55.6201 134.42 56.6902 134.42 58.0101C134.42 59.3301 135.49 60.4001 136.81 60.4001H176.1C177.42 60.4001 178.49 59.3301 178.49 58.0101C178.49 56.6902 177.42 55.6201 176.1 55.6201Z" fill="#183B1B"/>
<path d="M176.09 65.1699H91.7202C90.4002 65.1699 89.3302 66.24 89.3302 67.5599C89.3302 68.8799 90.4002 69.9499 91.7202 69.9499H176.09C177.41 69.9499 178.48 68.8799 178.48 67.5599C178.48 66.24 177.41 65.1699 176.09 65.1699Z" fill="#183B1B"/>
<path d="M152.67 74.7197H91.7202C90.4002 74.7197 89.3302 75.7898 89.3302 77.1097C89.3302 78.4297 90.4002 79.4997 91.7202 79.4997H152.67C153.99 79.4997 155.06 78.4297 155.06 77.1097C155.06 75.7898 153.99 74.7197 152.67 74.7197Z" fill="#183B1B"/>
<path d="M105.25 84.2705H91.7202C90.4002 84.2705 89.3302 85.3406 89.3302 86.6605C89.3302 87.9805 90.4002 89.0505 91.7202 89.0505H105.25C106.57 89.0505 107.64 87.9805 107.64 86.6605C107.64 85.3406 106.57 84.2705 105.25 84.2705Z" fill="#183B1B"/>
<path d="M127.94 84.2705H114.41C113.09 84.2705 112.02 85.3406 112.02 86.6605C112.02 87.9805 113.09 89.0505 114.41 89.0505H127.94C129.26 89.0505 130.33 87.9805 130.33 86.6605C130.33 85.3406 129.26 84.2705 127.94 84.2705Z" fill="#183B1B"/>
<path d="M230.4 47.1504H204.05C194.993 47.1504 187.65 54.4929 187.65 63.5504V93.3704C187.65 102.428 194.993 109.77 204.05 109.77H230.4C239.458 109.77 246.8 102.428 246.8 93.3704V63.5504C246.8 54.4929 239.458 47.1504 230.4 47.1504Z" fill="url(#paint0_linear_4430_1647)"/>
<path d="M225.26 87.9902H211.3C206.77 87.9902 202.71 90.7902 201.1 95.0202L196.23 107.8C198.55 109.06 201.22 109.78 204.05 109.78H230.39C233.94 109.78 237.23 108.65 239.92 106.72L235.46 95.0202C233.85 90.7902 229.79 87.9902 225.26 87.9902Z" fill="#00CE66"/>
<path d="M223.04 87.3707L221.72 81.9307H213.87L212.53 87.4207L211.92 89.9207C213.12 90.5707 215.32 91.0007 217.85 91.0007C220.38 91.0007 222.46 90.5907 223.67 89.9707L223.03 87.3607L223.04 87.3707Z" fill="#875151"/>
<path d="M217.78 85.1106C223.651 85.1106 228.41 80.3514 228.41 74.4806C228.41 68.6098 223.651 63.8506 217.78 63.8506C211.91 63.8506 207.15 68.6098 207.15 74.4806C207.15 80.3514 211.91 85.1106 217.78 85.1106Z" fill="#875151"/>
<path d="M221.02 79.0407C220 79.3707 218.91 79.5407 217.78 79.5407C216.65 79.5407 215.5 79.3507 214.46 79.0107" stroke="#6A3636" stroke-width="0.5" stroke-linecap="round" stroke-linejoin="round"/>
<path d="M217.78 63.8408C212.64 63.8408 208.36 67.4808 207.36 72.3308C208.23 71.0808 209.01 69.7608 209.78 68.4408C210.12 67.8708 210.74 67.4808 211.45 67.4808H223.71C224.42 67.4808 225.05 67.8708 225.38 68.4408C226.29 69.9908 227.2 71.5308 228.26 72.9808L228.31 73.0408C227.61 67.8508 223.16 63.8408 217.78 63.8408Z" fill="#183B1B"/>
<path d="M227.98 71.4703V55.2103C227.98 53.8703 226.89 52.7803 225.55 52.7803H210.18C208.84 52.7803 207.75 53.8703 207.75 55.2103V70.9303C207.59 71.3803 207.46 71.8503 207.36 72.3203C207.56 72.0403 207.75 71.7503 207.93 71.4603C208.57 70.4703 209.18 69.4503 209.77 68.4303C210.11 67.8603 210.73 67.4703 211.44 67.4703H223.7C224.41 67.4703 225.04 67.8603 225.37 68.4303C225.97 69.4503 226.57 70.4703 227.21 71.4603C227.54 71.9703 227.89 72.4803 228.25 72.9703L228.3 73.0303C228.23 72.4903 228.11 71.9703 227.96 71.4603L227.98 71.4703Z" fill="#183B1B"/>
<path d="M228.993 70.8513L228.983 70.8501C228.347 70.7732 227.769 71.2265 227.692 71.8626L227.169 76.1911C227.092 76.8271 227.545 77.405 228.181 77.4819L228.191 77.4831C228.827 77.5599 229.405 77.1066 229.482 76.4706L230.005 72.1421C230.082 71.506 229.629 70.9281 228.993 70.8513Z" fill="#875151"/>
<path d="M206.751 70.8587L206.741 70.8599C206.105 70.9367 205.652 71.5146 205.729 72.1506L206.252 76.4792C206.329 77.1152 206.907 77.5685 207.543 77.4916L207.553 77.4904C208.189 77.4136 208.642 76.8357 208.565 76.1996L208.042 71.8711C207.965 71.2351 207.387 70.7818 206.751 70.8587Z" fill="#875151"/>
<path d="M206.67 76.3V76.32C206.67 76.32 206.74 76.36 206.77 76.34H206.78C206.78 76.34 206.87 76.32 206.88 76.37V76.39C206.88 76.39 206.93 76.45 206.97 76.44H206.99C206.99 76.44 207.08 76.46 207.07 76.5V76.52C207.07 76.52 207.09 76.59 207.13 76.59H207.15C207.15 76.59 207.23 76.64 207.2 76.68C207.2 76.68 207.2 76.77 207.23 76.78H207.25C207.25 76.78 207.31 76.86 207.27 76.89H207.26C207.26 76.89 207.23 76.97 207.26 77H207.27C207.27 77 207.3 77.1 207.25 77.12H207.23C207.23 77.12 207.18 77.18 207.2 77.22C207.23 77.28 207.2 77.33 207.15 77.33H207.13C207.13 77.33 207.06 77.36 207.07 77.4V77.42C207.07 77.42 207.04 77.51 206.99 77.49H206.97C206.97 77.49 206.89 77.49 206.89 77.53V77.55C206.89 77.55 206.82 77.62 206.79 77.59H206.78C206.78 77.59 206.7 77.56 206.69 77.59V77.61C206.69 77.61 206.6 77.65 206.57 77.61V77.59C206.57 77.59 206.5 77.55 206.47 77.57H206.46C206.46 77.57 206.37 77.59 206.36 77.54V77.52C206.36 77.52 206.31 77.46 206.27 77.47H206.25C206.25 77.47 206.16 77.45 206.17 77.41V77.39C206.17 77.39 206.15 77.32 206.11 77.32H206.09C206.09 77.32 206.01 77.27 206.04 77.23C206.04 77.23 206.04 77.14 206.01 77.13H205.99C205.99 77.13 205.93 77.05 205.97 77.02H205.98C205.98 77.02 206.01 76.94 205.98 76.91H205.97C205.97 76.91 205.94 76.81 205.99 76.79H206.01C206.01 76.79 206.06 76.73 206.04 76.69C206.01 76.63 206.04 76.58 206.09 76.58H206.11C206.11 76.58 206.18 76.55 206.17 76.51V76.49C206.17 76.49 206.2 76.4 206.25 76.42H206.27C206.27 76.42 206.35 76.42 206.35 76.38V76.36C206.35 76.36 206.42 76.29 206.45 76.32H206.46C206.46 76.32 206.54 76.35 206.55 76.32V76.3C206.55 76.3 206.64 76.26 206.67 76.3Z" fill="#FEDD00"/>
<path d="M228.86 76.3V76.32C228.86 76.32 228.93 76.36 228.96 76.34H228.97C228.97 76.34 229.06 76.32 229.07 76.37V76.39C229.07 76.39 229.12 76.45 229.16 76.44H229.18C229.18 76.44 229.27 76.46 229.26 76.5V76.52C229.26 76.52 229.28 76.59 229.32 76.59H229.34C229.34 76.59 229.42 76.64 229.39 76.68C229.39 76.68 229.39 76.77 229.42 76.78H229.44C229.44 76.78 229.5 76.86 229.46 76.89H229.45C229.45 76.89 229.42 76.97 229.45 77H229.46C229.46 77 229.49 77.1 229.44 77.12H229.42C229.42 77.12 229.37 77.18 229.39 77.22C229.42 77.28 229.39 77.33 229.34 77.33H229.32C229.32 77.33 229.25 77.36 229.26 77.4V77.42C229.26 77.42 229.23 77.51 229.18 77.49H229.16C229.16 77.49 229.08 77.49 229.08 77.53V77.55C229.08 77.55 229.01 77.62 228.98 77.59H228.97C228.97 77.59 228.89 77.56 228.88 77.59V77.61C228.88 77.61 228.79 77.65 228.76 77.61V77.59C228.76 77.59 228.69 77.55 228.66 77.57H228.65C228.65 77.57 228.56 77.59 228.55 77.54V77.52C228.55 77.52 228.5 77.46 228.46 77.47H228.44C228.44 77.47 228.35 77.45 228.36 77.41V77.39C228.36 77.39 228.34 77.32 228.3 77.32H228.28C228.28 77.32 228.2 77.27 228.23 77.23C228.23 77.23 228.23 77.14 228.2 77.13H228.18C228.18 77.13 228.12 77.05 228.16 77.02H228.17C228.17 77.02 228.2 76.94 228.17 76.91H228.16C228.16 76.91 228.13 76.81 228.18 76.79H228.2C228.2 76.79 228.25 76.73 228.23 76.69C228.2 76.63 228.23 76.58 228.28 76.58H228.3C228.3 76.58 228.37 76.55 228.36 76.51V76.49C228.36 76.49 228.39 76.4 228.44 76.42H228.46C228.46 76.42 228.54 76.42 228.54 76.38V76.36C228.54 76.36 228.61 76.29 228.64 76.32H228.65C228.65 76.32 228.73 76.35 228.74 76.32V76.3C228.74 76.3 228.83 76.26 228.86 76.3Z" fill="#FEDD00"/>
</g>
<path d="M210.798 116.903L200.79 120.937L214.766 155.616L224.774 151.583L210.798 116.903Z" fill="#FEDD00"/>
<path d="M201.38 140.74L208.74 159H235.18L224.12 131.57L201.38 140.74Z" fill="#331919"/>
<path d="M191.41 121.29C212.446 121.29 229.5 104.237 229.5 83.2003C229.5 62.1638 212.446 45.1104 191.41 45.1104C170.373 45.1104 153.32 62.1638 153.32 83.2003C153.32 104.237 170.373 121.29 191.41 121.29Z" fill="url(#paint1_linear_4430_1647)"/>
<path d="M215.74 120.98C215.43 120.96 215.12 120.93 214.82 120.89C215.12 120.93 215.43 120.95 215.74 120.98Z" fill="#FEF9F2"/>
<path d="M215.74 120.98C215.43 120.96 215.12 120.93 214.82 120.89C215.12 120.93 215.43 120.95 215.74 120.98Z" fill="url(#paint2_linear_4430_1647)"/>
<path d="M230.27 85.6803C229.99 85.5503 229.71 85.4303 229.44 85.2803C229.33 87.2103 229.08 89.1303 228.69 91.0103H228.98L229.17 90.2303L230.28 85.6803H230.27Z" fill="#FEF9F2"/>
<path d="M230.27 85.6803C229.99 85.5503 229.71 85.4303 229.44 85.2803C229.33 87.2103 229.08 89.1303 228.69 91.0103H228.98L229.17 90.2303L230.28 85.6803H230.27Z" fill="url(#paint3_linear_4430_1647)"/>
<path d="M207.82 118.89C207.44 118.71 207.07 118.52 206.7 118.32C207.07 118.52 207.44 118.71 207.82 118.89Z" fill="#FEF9F2"/>
<path d="M207.82 118.89C207.44 118.71 207.07 118.52 206.7 118.32C207.07 118.52 207.44 118.71 207.82 118.89Z" fill="url(#paint4_linear_4430_1647)"/>
<path d="M213.08 120.62C212.23 120.45 211.41 120.24 210.6 119.98C211.41 120.24 212.24 120.45 213.08 120.62Z" fill="#FEF9F2"/>
<path d="M213.08 120.62C212.23 120.45 211.41 120.24 210.6 119.98C211.41 120.24 212.24 120.45 213.08 120.62Z" fill="url(#paint5_linear_4430_1647)"/>
<path d="M208.99 119.4C208.71 119.29 208.44 119.17 208.17 119.05C208.44 119.17 208.71 119.29 208.99 119.4Z" fill="#FEF9F2"/>
<path d="M208.99 119.4C208.71 119.29 208.44 119.17 208.17 119.05C208.44 119.17 208.71 119.29 208.99 119.4Z" fill="url(#paint6_linear_4430_1647)"/>
<path d="M210.23 119.86C209.95 119.76 209.66 119.66 209.38 119.56C209.66 119.67 209.94 119.77 210.23 119.86Z" fill="#FEF9F2"/>
<path d="M210.23 119.86C209.95 119.76 209.66 119.66 209.38 119.56C209.66 119.67 209.94 119.77 210.23 119.86Z" fill="url(#paint7_linear_4430_1647)"/>
<path d="M214.38 120.83C214.08 120.79 213.77 120.74 213.47 120.69C213.77 120.74 214.07 120.79 214.38 120.83Z" fill="#FEF9F2"/>
<path d="M214.38 120.83C214.08 120.79 213.77 120.74 213.47 120.69C213.77 120.74 214.07 120.79 214.38 120.83Z" fill="url(#paint8_linear_4430_1647)"/>
<path d="M206.45 118.18C206.53 118.23 206.61 118.28 206.69 118.32L206.8 118.03C206.68 118.08 206.56 118.13 206.44 118.18H206.45Z" fill="#FEF9F2"/>
<path d="M206.45 118.18C206.53 118.23 206.61 118.28 206.69 118.32L206.8 118.03C206.68 118.08 206.56 118.13 206.44 118.18H206.45Z" fill="url(#paint9_linear_4430_1647)"/>
<g filter="url(#filter1_d_4430_1647)">
<path d="M208.16 119.04C208.04 118.99 207.93 118.94 207.81 118.88C207.92 118.93 208.04 118.98 208.16 119.04Z" fill="#00CE66"/>
</g>
<g filter="url(#filter2_d_4430_1647)">
<path d="M209.39 119.55C209.26 119.5 209.12 119.45 208.99 119.39C209.12 119.44 209.26 119.5 209.39 119.55Z" fill="#00CE66"/>
</g>
<g filter="url(#filter3_d_4430_1647)">
<path d="M214.82 120.89C214.67 120.87 214.52 120.85 214.37 120.83C214.52 120.85 214.67 120.87 214.82 120.89Z" fill="#00CE66"/>
</g>
<g filter="url(#filter4_d_4430_1647)">
<path d="M213.47 120.69C213.34 120.67 213.21 120.65 213.08 120.62C213.21 120.65 213.34 120.67 213.47 120.69Z" fill="#00CE66"/>
</g>
<g filter="url(#filter5_d_4430_1647)">
<path d="M210.6 119.98C210.48 119.94 210.36 119.9 210.23 119.86C210.35 119.9 210.47 119.94 210.6 119.98Z" fill="#00CE66"/>
</g>
<g filter="url(#filter6_d_4430_1647)">
<path d="M216.15 121.01C216.01 121.01 215.88 120.99 215.74 120.98C215.88 120.99 216.01 121 216.15 121.01Z" fill="#00CE66"/>
</g>
<path d="M194.86 98.4402V57.3202C194.86 53.0702 196.03 49.1002 198.07 45.7102C192.33 44.6802 186.3 44.9702 180.42 46.7502C181.49 47.2902 182.24 48.3902 182.24 49.6802C182.24 51.5002 180.77 52.9702 178.95 52.9702H168.26C165.74 54.9002 163.5 57.1202 161.57 59.5602H178.95C180.77 59.5602 182.24 61.0302 182.24 62.8502C182.24 64.6702 180.77 66.1402 178.95 66.1402H157.38C152.66 75.5702 151.84 86.9002 156.09 97.4502C163.95 116.96 186.14 126.4 205.66 118.54C205.93 118.43 206.2 118.31 206.46 118.19C199.55 114.32 194.87 106.93 194.87 98.4502L194.86 98.4402Z" fill="#FEF9F2"/>
<path d="M182.23 49.6605C182.23 48.3805 181.49 47.2805 180.41 46.7305C179.32 47.0605 178.24 47.4305 177.16 47.8605C173.89 49.1805 170.91 50.9005 168.24 52.9505H178.93C180.75 52.9505 182.22 51.4805 182.22 49.6605H182.23Z" fill="#183B1B"/>
<path d="M182.23 49.6605C182.23 48.3805 181.49 47.2805 180.41 46.7305C179.32 47.0605 178.24 47.4305 177.16 47.8605C173.89 49.1805 170.91 50.9005 168.24 52.9505H178.93C180.75 52.9505 182.22 51.4805 182.22 49.6605H182.23Z" fill="url(#paint10_linear_4430_1647)"/>
<path d="M182.23 62.8398C182.23 61.0198 180.76 59.5498 178.94 59.5498H161.56C159.94 61.5998 158.53 63.8098 157.37 66.1398H178.94C180.76 66.1398 182.23 64.6698 182.23 62.8498V62.8398Z" fill="#183B1B"/>
<path d="M182.23 62.8398C182.23 61.0198 180.76 59.5498 178.94 59.5498H161.56C159.94 61.5998 158.53 63.8098 157.37 66.1398H178.94C180.76 66.1398 182.23 64.6698 182.23 62.8498V62.8398Z" fill="url(#paint11_linear_4430_1647)"/>
<path d="M213.41 100.7C215.63 94.8604 221.23 91.0004 227.48 91.0004H228.7C229.1 89.1204 229.35 87.2004 229.45 85.2704C226.05 83.4304 223.48 80.2904 222.36 76.5104C222.34 76.5104 222.33 76.5104 222.31 76.5204C222.07 76.5504 221.84 76.5204 221.63 76.4504C221.61 76.4804 221.58 76.5104 221.54 76.4904H221.52C221.47 76.4604 221.41 76.4904 221.41 76.5504V76.5704C221.4 76.6404 221.32 76.6604 221.27 76.6204L221.25 76.6004C221.25 76.6004 221.15 76.5804 221.12 76.6204V76.6404C221.08 76.7004 220.99 76.7004 220.96 76.6404V76.6204C220.96 76.6204 220.86 76.5604 220.82 76.6004L220.8 76.6204C220.75 76.6604 220.67 76.6404 220.66 76.5704V76.5504C220.65 76.5004 220.59 76.4604 220.54 76.4804H220.52C220.46 76.5104 220.39 76.4604 220.41 76.3904V76.3704C220.43 76.3204 220.38 76.2704 220.33 76.2704H220.31C220.24 76.2704 220.2 76.2004 220.24 76.1404V76.1204C220.24 76.1204 220.26 76.0104 220.21 76.0004H220.19C220.13 75.9704 220.11 75.8904 220.16 75.8504H220.18C220.18 75.8504 220.22 75.7404 220.18 75.7004H220.16C220.11 75.6404 220.12 75.5604 220.19 75.5404H220.21C220.26 75.5104 220.28 75.4504 220.26 75.4104V75.3904C220.21 75.3304 220.26 75.2604 220.32 75.2604H220.34C220.39 75.2604 220.44 75.2104 220.42 75.1604V75.1404C220.4 75.0704 220.47 75.0204 220.53 75.0404L219.82 69.1604C219.71 68.2804 220.34 67.4804 221.22 67.3704C221.71 67.3104 222.17 67.4904 222.51 67.8004C222.54 67.7004 222.57 67.5904 222.61 67.4804V61.3104C216.75 52.9504 207.85 47.4304 198.09 45.6904C196.05 49.0904 194.88 53.0604 194.88 57.3004V98.4204C194.88 106.91 199.56 114.29 206.47 118.16C206.59 118.11 206.71 118.06 206.83 118.01L213.43 100.69L213.41 100.7Z" fill="#FEF9F2"/>
<path d="M213.41 100.7C215.63 94.8604 221.23 91.0004 227.48 91.0004H228.7C229.1 89.1204 229.35 87.2004 229.45 85.2704C226.05 83.4304 223.48 80.2904 222.36 76.5104C222.34 76.5104 222.33 76.5104 222.31 76.5204C222.07 76.5504 221.84 76.5204 221.63 76.4504C221.61 76.4804 221.58 76.5104 221.54 76.4904H221.52C221.47 76.4604 221.41 76.4904 221.41 76.5504V76.5704C221.4 76.6404 221.32 76.6604 221.27 76.6204L221.25 76.6004C221.25 76.6004 221.15 76.5804 221.12 76.6204V76.6404C221.08 76.7004 220.99 76.7004 220.96 76.6404V76.6204C220.96 76.6204 220.86 76.5604 220.82 76.6004L220.8 76.6204C220.75 76.6604 220.67 76.6404 220.66 76.5704V76.5504C220.65 76.5004 220.59 76.4604 220.54 76.4804H220.52C220.46 76.5104 220.39 76.4604 220.41 76.3904V76.3704C220.43 76.3204 220.38 76.2704 220.33 76.2704H220.31C220.24 76.2704 220.2 76.2004 220.24 76.1404V76.1204C220.24 76.1204 220.26 76.0104 220.21 76.0004H220.19C220.13 75.9704 220.11 75.8904 220.16 75.8504H220.18C220.18 75.8504 220.22 75.7404 220.18 75.7004H220.16C220.11 75.6404 220.12 75.5604 220.19 75.5404H220.21C220.26 75.5104 220.28 75.4504 220.26 75.4104V75.3904C220.21 75.3304 220.26 75.2604 220.32 75.2604H220.34C220.39 75.2604 220.44 75.2104 220.42 75.1604V75.1404C220.4 75.0704 220.47 75.0204 220.53 75.0404L219.82 69.1604C219.71 68.2804 220.34 67.4804 221.22 67.3704C221.71 67.3104 222.17 67.4904 222.51 67.8004C222.54 67.7004 222.57 67.5904 222.61 67.4804V61.3104C216.75 52.9504 207.85 47.4304 198.09 45.6904C196.05 49.0904 194.88 53.0604 194.88 57.3004V98.4204C194.88 106.91 199.56 114.29 206.47 118.16C206.59 118.11 206.71 118.06 206.83 118.01L213.43 100.69L213.41 100.7Z" fill="url(#paint12_linear_4430_1647)"/>
<path d="M213.41 100.7C215.63 94.8604 221.23 91.0004 227.48 91.0004H228.7C229.1 89.1204 229.35 87.2004 229.45 85.2704C226.05 83.4304 223.48 80.2904 222.36 76.5104C222.34 76.5104 222.33 76.5104 222.31 76.5204C222.07 76.5504 221.84 76.5204 221.63 76.4504C221.61 76.4804 221.58 76.5104 221.54 76.4904H221.52C221.47 76.4604 221.41 76.4904 221.41 76.5504V76.5704C221.4 76.6404 221.32 76.6604 221.27 76.6204L221.25 76.6004C221.25 76.6004 221.15 76.5804 221.12 76.6204V76.6404C221.08 76.7004 220.99 76.7004 220.96 76.6404V76.6204C220.96 76.6204 220.86 76.5604 220.82 76.6004L220.8 76.6204C220.75 76.6604 220.67 76.6404 220.66 76.5704V76.5504C220.65 76.5004 220.59 76.4604 220.54 76.4804H220.52C220.46 76.5104 220.39 76.4604 220.41 76.3904V76.3704C220.43 76.3204 220.38 76.2704 220.33 76.2704H220.31C220.24 76.2704 220.2 76.2004 220.24 76.1404V76.1204C220.24 76.1204 220.26 76.0104 220.21 76.0004H220.19C220.13 75.9704 220.11 75.8904 220.16 75.8504H220.18C220.18 75.8504 220.22 75.7404 220.18 75.7004H220.16C220.11 75.6404 220.12 75.5604 220.19 75.5404H220.21C220.26 75.5104 220.28 75.4504 220.26 75.4104V75.3904C220.21 75.3304 220.26 75.2604 220.32 75.2604H220.34C220.39 75.2604 220.44 75.2104 220.42 75.1604V75.1404C220.4 75.0704 220.47 75.0204 220.53 75.0404L219.82 69.1604C219.71 68.2804 220.34 67.4804 221.22 67.3704C221.71 67.3104 222.17 67.4904 222.51 67.8004C222.54 67.7004 222.57 67.5904 222.61 67.4804V61.3104C216.75 52.9504 207.85 47.4304 198.09 45.6904C196.05 49.0904 194.88 53.0604 194.88 57.3004V98.4204C194.88 106.91 199.56 114.29 206.47 118.16C206.59 118.11 206.71 118.06 206.83 118.01L213.43 100.69L213.41 100.7Z" fill="url(#paint13_linear_4430_1647)"/>
<path d="M213.41 100.7L206.81 118.02C218.41 112.9 226.25 102.63 228.69 91H227.47C221.22 91 215.63 94.86 213.4 100.7H213.41Z" fill="#00CE66"/>
<path d="M213.41 100.7L206.81 118.02C218.41 112.9 226.25 102.63 228.69 91H227.47C221.22 91 215.63 94.86 213.4 100.7H213.41Z" fill="url(#paint14_linear_4430_1647)"/>
<path d="M226.74 68.9597C226.18 67.5797 225.54 66.2497 224.85 64.9697C224.57 65.4497 224.28 65.9297 223.99 66.4097C223.83 66.6797 223.66 66.9397 223.5 67.1997C223.28 67.5397 223.08 67.8897 222.85 68.2297C222.85 68.2297 222.84 68.2497 222.83 68.2597C222.91 68.4197 222.97 68.5897 222.99 68.7797L223.71 74.7397C223.81 75.5997 223.21 76.3797 222.36 76.5197C223.47 80.2897 226.05 83.4397 229.45 85.2797C229.75 79.8697 228.9 74.3197 226.74 68.9697V68.9597Z" fill="#875151"/>
<path d="M226.74 68.9597C226.18 67.5797 225.54 66.2497 224.85 64.9697C224.57 65.4497 224.28 65.9297 223.99 66.4097C223.83 66.6797 223.66 66.9397 223.5 67.1997C223.28 67.5397 223.08 67.8897 222.85 68.2297C222.85 68.2297 222.84 68.2497 222.83 68.2597C222.91 68.4197 222.97 68.5897 222.99 68.7797L223.71 74.7397C223.81 75.5997 223.21 76.3797 222.36 76.5197C223.47 80.2897 226.05 83.4397 229.45 85.2797C229.75 79.8697 228.9 74.3197 226.74 68.9697V68.9597Z" fill="url(#paint15_linear_4430_1647)"/>
<path d="M223.98 66.4102C223.82 66.6802 223.65 66.9401 223.49 67.2001C223.65 66.9401 223.82 66.6702 223.98 66.4102Z" fill="#183B1B"/>
<path d="M223.98 66.4102C223.82 66.6802 223.65 66.9401 223.49 67.2001C223.65 66.9401 223.82 66.6702 223.98 66.4102Z" fill="url(#paint16_linear_4430_1647)"/>
<path d="M222.49 67.8103C222.49 67.8103 222.52 67.7203 222.54 67.6703C222.64 67.3803 222.74 67.1003 222.85 66.8203C222.92 66.6603 222.99 66.5003 223.06 66.3403C223.17 66.0903 223.29 65.8403 223.42 65.6003C223.5 65.4403 223.59 65.2803 223.68 65.1203C223.81 64.8903 223.95 64.6603 224.1 64.4303C224.18 64.3103 224.26 64.1803 224.34 64.0603C223.79 63.1103 223.2 62.2003 222.59 61.3203V67.4903C222.55 67.5903 222.52 67.7003 222.49 67.8103Z" fill="#183B1B"/>
<path d="M222.49 67.8103C222.49 67.8103 222.52 67.7203 222.54 67.6703C222.64 67.3803 222.74 67.1003 222.85 66.8203C222.92 66.6603 222.99 66.5003 223.06 66.3403C223.17 66.0903 223.29 65.8403 223.42 65.6003C223.5 65.4403 223.59 65.2803 223.68 65.1203C223.81 64.8903 223.95 64.6603 224.1 64.4303C224.18 64.3103 224.26 64.1803 224.34 64.0603C223.79 63.1103 223.2 62.2003 222.59 61.3203V67.4903C222.55 67.5903 222.52 67.7003 222.49 67.8103Z" fill="url(#paint17_linear_4430_1647)"/>
<path d="M222.49 67.8099C222.49 67.8099 222.52 67.7199 222.54 67.6699C222.52 67.7199 222.5 67.7599 222.49 67.8099Z" fill="#183B1B"/>
<path d="M222.49 67.8099C222.49 67.8099 222.52 67.7199 222.54 67.6699C222.52 67.7199 222.5 67.7599 222.49 67.8099Z" fill="url(#paint18_linear_4430_1647)"/>
<path d="M224.34 64.0703C224.26 64.1903 224.18 64.3203 224.1 64.4403C224.18 64.3203 224.26 64.2003 224.34 64.0703Z" fill="#183B1B"/>
<path d="M224.34 64.0703C224.26 64.1903 224.18 64.3203 224.1 64.4403C224.18 64.3203 224.26 64.2003 224.34 64.0703Z" fill="url(#paint19_linear_4430_1647)"/>
<path d="M222.85 66.8198C222.92 66.6598 222.99 66.4998 223.06 66.3398C222.99 66.4998 222.91 66.6598 222.85 66.8198Z" fill="#183B1B"/>
<path d="M222.85 66.8198C222.92 66.6598 222.99 66.4998 223.06 66.3398C222.99 66.4998 222.91 66.6598 222.85 66.8198Z" fill="url(#paint20_linear_4430_1647)"/>
<path d="M223.98 66.4097C224.27 65.9297 224.56 65.4497 224.84 64.9697C224.56 65.4497 224.27 65.9297 223.98 66.4097Z" fill="#183B1B"/>
<path d="M223.98 66.4097C224.27 65.9297 224.56 65.4497 224.84 64.9697C224.56 65.4497 224.27 65.9297 223.98 66.4097Z" fill="url(#paint21_linear_4430_1647)"/>
<path d="M223.42 65.6001C223.5 65.4401 223.59 65.2801 223.68 65.1201C223.59 65.2801 223.5 65.4401 223.42 65.6001Z" fill="#183B1B"/>
<path d="M223.42 65.6001C223.5 65.4401 223.59 65.2801 223.68 65.1201C223.59 65.2801 223.5 65.4401 223.42 65.6001Z" fill="url(#paint22_linear_4430_1647)"/>
<path d="M222.82 68.2602C222.82 68.2602 222.83 68.2402 222.84 68.2302C223.06 67.8902 223.27 67.5402 223.49 67.2002C223.27 67.5502 223.04 67.8902 222.81 68.2402V68.2602H222.82Z" fill="#183B1B"/>
<path d="M222.82 68.2602C222.82 68.2602 222.83 68.2402 222.84 68.2302C223.06 67.8902 223.27 67.5402 223.49 67.2002C223.27 67.5502 223.04 67.8902 222.81 68.2402V68.2602H222.82Z" fill="url(#paint23_linear_4430_1647)"/>
<path d="M223.06 66.3396C223.17 66.0896 223.29 65.8396 223.42 65.5996C223.29 65.8396 223.18 66.0896 223.06 66.3396Z" fill="#183B1B"/>
<path d="M223.06 66.3396C223.17 66.0896 223.29 65.8396 223.42 65.5996C223.29 65.8396 223.18 66.0896 223.06 66.3396Z" fill="url(#paint24_linear_4430_1647)"/>
<path d="M222.54 67.6703C222.64 67.3803 222.74 67.1003 222.85 66.8203C222.74 67.1003 222.64 67.3803 222.54 67.6703Z" fill="#183B1B"/>
<path d="M222.54 67.6703C222.64 67.3803 222.74 67.1003 222.85 66.8203C222.74 67.1003 222.64 67.3803 222.54 67.6703Z" fill="url(#paint25_linear_4430_1647)"/>
<path d="M223.68 65.1197C223.81 64.8897 223.95 64.6597 224.1 64.4297C223.95 64.6497 223.82 64.8797 223.68 65.1197Z" fill="#183B1B"/>
<path d="M223.68 65.1197C223.81 64.8897 223.95 64.6597 224.1 64.4297C223.95 64.6497 223.82 64.8797 223.68 65.1197Z" fill="url(#paint26_linear_4430_1647)"/>
<path d="M222.81 68.2403C223.04 67.8903 223.27 67.5503 223.49 67.2003C223.65 66.9403 223.82 66.6703 223.98 66.4103C224.27 65.9303 224.56 65.4503 224.84 64.9703C224.68 64.6703 224.51 64.3703 224.34 64.0703C224.26 64.1903 224.18 64.3103 224.1 64.4403C223.95 64.6603 223.82 64.8903 223.68 65.1303C223.59 65.2903 223.5 65.4503 223.42 65.6103C223.29 65.8503 223.18 66.1003 223.06 66.3503C222.99 66.5103 222.91 66.6703 222.85 66.8303C222.74 67.1103 222.64 67.3903 222.54 67.6803C222.52 67.7303 222.51 67.7703 222.49 67.8203C222.62 67.9403 222.73 68.0903 222.82 68.2503L222.81 68.2403Z" fill="#183B1B"/>
<path d="M222.81 68.2403C223.04 67.8903 223.27 67.5503 223.49 67.2003C223.65 66.9403 223.82 66.6703 223.98 66.4103C224.27 65.9303 224.56 65.4503 224.84 64.9703C224.68 64.6703 224.51 64.3703 224.34 64.0703C224.26 64.1903 224.18 64.3103 224.1 64.4403C223.95 64.6603 223.82 64.8903 223.68 65.1303C223.59 65.2903 223.5 65.4503 223.42 65.6103C223.29 65.8503 223.18 66.1003 223.06 66.3503C222.99 66.5103 222.91 66.6703 222.85 66.8303C222.74 67.1103 222.64 67.3903 222.54 67.6803C222.52 67.7303 222.51 67.7703 222.49 67.8203C222.62 67.9403 222.73 68.0903 222.82 68.2503L222.81 68.2403Z" fill="url(#paint27_linear_4430_1647)"/>
<path d="M222.05 69.4096C222.13 69.0396 222.22 68.6696 222.33 68.2996C222.35 68.2296 222.37 68.1596 222.39 68.0896C222.42 67.9896 222.45 67.8996 222.49 67.8096C222.16 67.4996 221.69 67.3196 221.2 67.3796C220.32 67.4896 219.69 68.2896 219.8 69.1696L220.51 75.0496H220.53C220.58 75.0796 220.64 75.0496 220.64 74.9896V74.9696C220.65 74.8996 220.73 74.8796 220.78 74.9196L220.8 74.9396C220.8 74.9396 220.9 74.9596 220.93 74.9196V74.8996C220.97 74.8396 221.06 74.8396 221.09 74.8996V74.9196C221.09 74.9196 221.19 74.9796 221.23 74.9396L221.25 74.9196C221.3 74.8796 221.38 74.8996 221.39 74.9696V74.9896C221.4 75.0396 221.46 75.0796 221.51 75.0596H221.53C221.59 75.0296 221.66 75.0796 221.64 75.1496V75.1696C221.62 75.2196 221.67 75.2696 221.72 75.2696H221.74C221.81 75.2696 221.85 75.3396 221.81 75.3996V75.4196C221.81 75.4196 221.79 75.5296 221.84 75.5396H221.86C221.92 75.5696 221.94 75.6496 221.89 75.6896H221.87C221.87 75.6896 221.83 75.7996 221.87 75.8396H221.89C221.94 75.8996 221.93 75.9796 221.86 75.9996H221.84C221.79 76.0296 221.77 76.0896 221.79 76.1296V76.1496C221.84 76.2096 221.79 76.2796 221.73 76.2796H221.71C221.66 76.2796 221.61 76.3296 221.63 76.3796V76.3996C221.63 76.3996 221.63 76.4396 221.62 76.4496C221.83 76.5196 222.06 76.5496 222.3 76.5196C222.32 76.5196 222.33 76.5196 222.35 76.5096C221.96 75.1896 221.75 73.8096 221.75 72.3696C221.75 71.3596 221.85 70.3696 222.05 69.4096Z" fill="#875151"/>
<path d="M222.05 69.4096C222.13 69.0396 222.22 68.6696 222.33 68.2996C222.35 68.2296 222.37 68.1596 222.39 68.0896C222.42 67.9896 222.45 67.8996 222.49 67.8096C222.16 67.4996 221.69 67.3196 221.2 67.3796C220.32 67.4896 219.69 68.2896 219.8 69.1696L220.51 75.0496H220.53C220.58 75.0796 220.64 75.0496 220.64 74.9896V74.9696C220.65 74.8996 220.73 74.8796 220.78 74.9196L220.8 74.9396C220.8 74.9396 220.9 74.9596 220.93 74.9196V74.8996C220.97 74.8396 221.06 74.8396 221.09 74.8996V74.9196C221.09 74.9196 221.19 74.9796 221.23 74.9396L221.25 74.9196C221.3 74.8796 221.38 74.8996 221.39 74.9696V74.9896C221.4 75.0396 221.46 75.0796 221.51 75.0596H221.53C221.59 75.0296 221.66 75.0796 221.64 75.1496V75.1696C221.62 75.2196 221.67 75.2696 221.72 75.2696H221.74C221.81 75.2696 221.85 75.3396 221.81 75.3996V75.4196C221.81 75.4196 221.79 75.5296 221.84 75.5396H221.86C221.92 75.5696 221.94 75.6496 221.89 75.6896H221.87C221.87 75.6896 221.83 75.7996 221.87 75.8396H221.89C221.94 75.8996 221.93 75.9796 221.86 75.9996H221.84C221.79 76.0296 221.77 76.0896 221.79 76.1296V76.1496C221.84 76.2096 221.79 76.2796 221.73 76.2796H221.71C221.66 76.2796 221.61 76.3296 221.63 76.3796V76.3996C221.63 76.3996 221.63 76.4396 221.62 76.4496C221.83 76.5196 222.06 76.5496 222.3 76.5196C222.32 76.5196 222.33 76.5196 222.35 76.5096C221.96 75.1896 221.75 73.8096 221.75 72.3696C221.75 71.3596 221.85 70.3696 222.05 69.4096Z" fill="url(#paint28_linear_4430_1647)"/>
<path d="M223.71 74.7398L222.99 68.7798C222.97 68.5898 222.91 68.4198 222.83 68.2598C222.58 68.6498 222.32 69.0298 222.06 69.4098C221.86 70.3698 221.76 71.3598 221.76 72.3698C221.76 73.8098 221.98 75.1998 222.36 76.5098C223.21 76.3798 223.82 75.5998 223.71 74.7298V74.7398Z" fill="#875151"/>
<path d="M223.71 74.7398L222.99 68.7798C222.97 68.5898 222.91 68.4198 222.83 68.2598C222.58 68.6498 222.32 69.0298 222.06 69.4098C221.86 70.3698 221.76 71.3598 221.76 72.3698C221.76 73.8098 221.98 75.1998 222.36 76.5098C223.21 76.3798 223.82 75.5998 223.71 74.7298V74.7398Z" fill="url(#paint29_linear_4430_1647)"/>
<path d="M222.46 67.9096C222.46 67.9096 222.48 67.8496 222.49 67.8096C222.46 67.9096 222.42 67.9996 222.39 68.0896C222.41 68.0296 222.43 67.9596 222.46 67.8996V67.9096Z" fill="#875151"/>
<path d="M222.46 67.9096C222.46 67.9096 222.48 67.8496 222.49 67.8096C222.46 67.9096 222.42 67.9996 222.39 68.0896C222.41 68.0296 222.43 67.9596 222.46 67.8996V67.9096Z" fill="url(#paint30_linear_4430_1647)"/>
<path d="M222.39 68.0901C222.37 68.1601 222.35 68.2301 222.33 68.3001C222.34 68.2601 222.36 68.2201 222.37 68.1801C222.37 68.1501 222.39 68.1201 222.39 68.0801V68.0901Z" fill="#875151"/>
<path d="M222.39 68.0901C222.37 68.1601 222.35 68.2301 222.33 68.3001C222.34 68.2601 222.36 68.2201 222.37 68.1801C222.37 68.1501 222.39 68.1201 222.39 68.0801V68.0901Z" fill="url(#paint31_linear_4430_1647)"/>
<path d="M222.46 67.9102C222.44 67.9702 222.41 68.0302 222.39 68.1002C222.39 68.1302 222.37 68.1601 222.37 68.2001C222.4 68.1001 222.43 68.0102 222.46 67.9202V67.9102Z" fill="#875151"/>
<path d="M222.46 67.9102C222.44 67.9702 222.41 68.0302 222.39 68.1002C222.39 68.1302 222.37 68.1601 222.37 68.2001C222.4 68.1001 222.43 68.0102 222.46 67.9202V67.9102Z" fill="url(#paint32_linear_4430_1647)"/>
<path d="M222.05 69.4098C222.13 69.0398 222.22 68.6698 222.33 68.2998C222.22 68.6598 222.13 69.0298 222.05 69.4098Z" fill="#875151"/>
<path d="M222.05 69.4098C222.13 69.0398 222.22 68.6698 222.33 68.2998C222.22 68.6598 222.13 69.0298 222.05 69.4098Z" fill="url(#paint33_linear_4430_1647)"/>
<path d="M222.05 69.4102C222.31 69.0302 222.57 68.6502 222.82 68.2602V68.2402C222.57 68.6302 222.32 69.0302 222.06 69.4102H222.05Z" fill="#875151"/>
<path d="M222.05 69.4102C222.31 69.0302 222.57 68.6502 222.82 68.2602V68.2402C222.57 68.6302 222.32 69.0302 222.06 69.4102H222.05Z" fill="url(#paint34_linear_4430_1647)"/>
<path d="M222.49 67.8096C222.49 67.8096 222.47 67.8696 222.46 67.9096C222.47 67.8796 222.48 67.8496 222.49 67.8196V67.8096Z" fill="#875151"/>
<path d="M222.49 67.8096C222.49 67.8096 222.47 67.8696 222.46 67.9096C222.47 67.8796 222.48 67.8496 222.49 67.8196V67.8096Z" fill="url(#paint35_linear_4430_1647)"/>
<path d="M222.37 68.1904C222.37 68.1904 222.34 68.2704 222.33 68.3104C222.23 68.6704 222.13 69.0404 222.05 69.4204C222.14 69.0004 222.25 68.6004 222.36 68.2004L222.37 68.1904Z" fill="#875151"/>
<path d="M222.37 68.1904C222.37 68.1904 222.34 68.2704 222.33 68.3104C222.23 68.6704 222.13 69.0404 222.05 69.4204C222.14 69.0004 222.25 68.6004 222.36 68.2004L222.37 68.1904Z" fill="url(#paint36_linear_4430_1647)"/>
<path d="M222.05 69.4096C222.32 69.0296 222.56 68.6296 222.81 68.2396C222.73 68.0796 222.62 67.9396 222.48 67.8096C222.47 67.8396 222.46 67.8696 222.45 67.8996C222.42 67.9896 222.39 68.0896 222.36 68.1796C222.24 68.5796 222.13 68.9896 222.05 69.3996V69.4096Z" fill="#875151"/>
<path d="M222.05 69.4096C222.32 69.0296 222.56 68.6296 222.81 68.2396C222.73 68.0796 222.62 67.9396 222.48 67.8096C222.47 67.8396 222.46 67.8696 222.45 67.8996C222.42 67.9896 222.39 68.0896 222.36 68.1796C222.24 68.5796 222.13 68.9896 222.05 69.3996V69.4096Z" fill="url(#paint37_linear_4430_1647)"/>
<path d="M220.52 75.1303V75.0503H220.51C220.45 75.0303 220.38 75.0803 220.4 75.1503V75.1703C220.42 75.2203 220.37 75.2703 220.32 75.2703H220.3C220.23 75.2703 220.19 75.3403 220.23 75.4003V75.4203C220.23 75.4203 220.25 75.5303 220.2 75.5403H220.18C220.12 75.5703 220.1 75.6503 220.15 75.6903H220.17C220.17 75.6903 220.21 75.8003 220.17 75.8403H220.15C220.1 75.9003 220.11 75.9803 220.18 76.0003H220.2C220.25 76.0303 220.27 76.0903 220.25 76.1303V76.1503C220.2 76.2103 220.25 76.2803 220.31 76.2803H220.33C220.38 76.2803 220.43 76.3303 220.41 76.3803V76.4003C220.39 76.4703 220.46 76.5203 220.52 76.5003H220.54C220.59 76.4703 220.65 76.5003 220.65 76.5603V76.5803C220.66 76.6503 220.74 76.6703 220.79 76.6303L220.81 76.6103C220.81 76.6103 220.91 76.5903 220.94 76.6303V76.6503C220.98 76.7103 221.07 76.7103 221.1 76.6503V76.6303C221.1 76.6303 221.2 76.5703 221.24 76.6103L221.26 76.6303C221.31 76.6703 221.39 76.6503 221.4 76.5803V76.5603C221.41 76.5103 221.47 76.4703 221.52 76.4903H221.54C221.54 76.4903 221.61 76.4903 221.63 76.4603C221.05 76.2703 220.6 75.7703 220.52 75.1303Z" fill="#FEDD00"/>
<path d="M220.52 75.1303V75.0503H220.51C220.45 75.0303 220.38 75.0803 220.4 75.1503V75.1703C220.42 75.2203 220.37 75.2703 220.32 75.2703H220.3C220.23 75.2703 220.19 75.3403 220.23 75.4003V75.4203C220.23 75.4203 220.25 75.5303 220.2 75.5403H220.18C220.12 75.5703 220.1 75.6503 220.15 75.6903H220.17C220.17 75.6903 220.21 75.8003 220.17 75.8403H220.15C220.1 75.9003 220.11 75.9803 220.18 76.0003H220.2C220.25 76.0303 220.27 76.0903 220.25 76.1303V76.1503C220.2 76.2103 220.25 76.2803 220.31 76.2803H220.33C220.38 76.2803 220.43 76.3303 220.41 76.3803V76.4003C220.39 76.4703 220.46 76.5203 220.52 76.5003H220.54C220.59 76.4703 220.65 76.5003 220.65 76.5603V76.5803C220.66 76.6503 220.74 76.6703 220.79 76.6303L220.81 76.6103C220.81 76.6103 220.91 76.5903 220.94 76.6303V76.6503C220.98 76.7103 221.07 76.7103 221.1 76.6503V76.6303C221.1 76.6303 221.2 76.5703 221.24 76.6103L221.26 76.6303C221.31 76.6703 221.39 76.6503 221.4 76.5803V76.5603C221.41 76.5103 221.47 76.4703 221.52 76.4903H221.54C221.54 76.4903 221.61 76.4903 221.63 76.4603C221.05 76.2703 220.6 75.7703 220.52 75.1303Z" fill="url(#paint38_linear_4430_1647)"/>
<path d="M221.64 76.3902C221.63 76.3402 221.67 76.2902 221.72 76.2902H221.74C221.81 76.2902 221.85 76.2202 221.81 76.1602V76.1402C221.81 76.1402 221.79 76.0302 221.84 76.0202H221.86C221.92 75.9902 221.94 75.9102 221.89 75.8702H221.87C221.87 75.8702 221.83 75.7602 221.87 75.7202H221.89C221.94 75.6602 221.93 75.5802 221.86 75.5602H221.84C221.79 75.5302 221.77 75.4702 221.79 75.4302V75.4102C221.84 75.3502 221.79 75.2802 221.73 75.2802H221.71C221.66 75.2802 221.61 75.2302 221.63 75.1802V75.1602C221.65 75.0902 221.58 75.0402 221.52 75.0602H221.5C221.45 75.0902 221.39 75.0602 221.39 75.0002V74.9802C221.38 74.9102 221.3 74.8902 221.25 74.9302L221.23 74.9502C221.23 74.9502 221.13 74.9702 221.1 74.9302V74.9102C221.06 74.8502 220.97 74.8502 220.94 74.9102V74.9302C220.94 74.9302 220.84 74.9902 220.8 74.9502L220.78 74.9302C220.73 74.8902 220.65 74.9102 220.64 74.9802V75.0002C220.63 75.0502 220.57 75.0902 220.52 75.0702H220.5V75.1402C220.58 75.7802 221.03 76.2902 221.61 76.4702C221.62 76.4502 221.63 76.4402 221.63 76.4202V76.4002L221.64 76.3902Z" fill="#FEDD00"/>
<path d="M221.64 76.3902C221.63 76.3402 221.67 76.2902 221.72 76.2902H221.74C221.81 76.2902 221.85 76.2202 221.81 76.1602V76.1402C221.81 76.1402 221.79 76.0302 221.84 76.0202H221.86C221.92 75.9902 221.94 75.9102 221.89 75.8702H221.87C221.87 75.8702 221.83 75.7602 221.87 75.7202H221.89C221.94 75.6602 221.93 75.5802 221.86 75.5602H221.84C221.79 75.5302 221.77 75.4702 221.79 75.4302V75.4102C221.84 75.3502 221.79 75.2802 221.73 75.2802H221.71C221.66 75.2802 221.61 75.2302 221.63 75.1802V75.1602C221.65 75.0902 221.58 75.0402 221.52 75.0602H221.5C221.45 75.0902 221.39 75.0602 221.39 75.0002V74.9802C221.38 74.9102 221.3 74.8902 221.25 74.9302L221.23 74.9502C221.23 74.9502 221.13 74.9702 221.1 74.9302V74.9102C221.06 74.8502 220.97 74.8502 220.94 74.9102V74.9302C220.94 74.9302 220.84 74.9902 220.8 74.9502L220.78 74.9302C220.73 74.8902 220.65 74.9102 220.64 74.9802V75.0002C220.63 75.0502 220.57 75.0902 220.52 75.0702H220.5V75.1402C220.58 75.7802 221.03 76.2902 221.61 76.4702C221.62 76.4502 221.63 76.4402 221.63 76.4202V76.4002L221.64 76.3902Z" fill="url(#paint39_linear_4430_1647)"/>
<path d="M173.4 38.5298C148.73 48.4698 136.79 76.5298 146.73 101.21C156.67 125.88 184.73 137.82 209.41 127.88C234.08 117.94 246.02 89.8798 236.08 65.1998C226.14 40.5298 198.08 28.5898 173.4 38.5298ZM205.64 118.53C186.13 126.39 163.94 116.95 156.07 97.4398C148.21 77.9298 157.65 55.7398 177.16 47.8698C196.67 39.9998 218.86 49.4498 226.73 68.9598C234.59 88.4698 225.15 110.66 205.64 118.53Z" fill="#331919"/>
</g>
<defs>
<filter id="filter0_d_4430_1647" x="66.7902" y="19.9804" width="197.97" height="125.75" filterUnits="userSpaceOnUse" color-interpolation-filters="sRGB">
<feFlood flood-opacity="0" result="BackgroundImageFix"/>
<feColorMatrix in="SourceAlpha" type="matrix" values="0 0 0 0 0 0 0 0 0 0 0 0 0 0 0 0 0 0 127 0" result="hardAlpha"/>
<feOffset dx="-2.83" dy="2.83"/>
<feGaussianBlur stdDeviation="2.02"/>
<feColorMatrix type="matrix" values="0 0 0 0 0 0 0 0 0 0 0 0 0 0 0 0 0 0 0.15 0"/>
<feBlend mode="normal" in2="BackgroundImageFix" result="effect1_dropShadow_4430_1647"/>
<feBlend mode="normal" in="SourceGraphic" in2="effect1_dropShadow_4430_1647" result="shape"/>
</filter>
<filter id="filter1_d_4430_1647" x="206.48" y="117.55" width="3.66998" height="3.48016" filterUnits="userSpaceOnUse" color-interpolation-filters="sRGB">
<feFlood flood-opacity="0" result="BackgroundImageFix"/>
<feColorMatrix in="SourceAlpha" type="matrix" values="0 0 0 0 0 0 0 0 0 0 0 0 0 0 0 0 0 0 127 0" result="hardAlpha"/>
<feOffset dx="0.33" dy="0.33"/>
<feGaussianBlur stdDeviation="0.83"/>
<feColorMatrix type="matrix" values="0 0 0 0 0.176471 0 0 0 0 0.0823529 0 0 0 0 0.286275 0 0 0 0.3 0"/>
<feBlend mode="normal" in2="BackgroundImageFix" result="effect1_dropShadow_4430_1647"/>
<feBlend mode="normal" in="SourceGraphic" in2="effect1_dropShadow_4430_1647" result="shape"/>
</filter>
<filter id="filter2_d_4430_1647" x="207.66" y="118.06" width="3.72002" height="3.48016" filterUnits="userSpaceOnUse" color-interpolation-filters="sRGB">
<feFlood flood-opacity="0" result="BackgroundImageFix"/>
<feColorMatrix in="SourceAlpha" type="matrix" values="0 0 0 0 0 0 0 0 0 0 0 0 0 0 0 0 0 0 127 0" result="hardAlpha"/>
<feOffset dx="0.33" dy="0.33"/>
<feGaussianBlur stdDeviation="0.83"/>
<feColorMatrix type="matrix" values="0 0 0 0 0.176471 0 0 0 0 0.0823529 0 0 0 0 0.286275 0 0 0 0.3 0"/>
<feBlend mode="normal" in2="BackgroundImageFix" result="effect1_dropShadow_4430_1647"/>
<feBlend mode="normal" in="SourceGraphic" in2="effect1_dropShadow_4430_1647" result="shape"/>
</filter>
<filter id="filter3_d_4430_1647" x="213.04" y="119.5" width="3.77007" height="3.37957" filterUnits="userSpaceOnUse" color-interpolation-filters="sRGB">
<feFlood flood-opacity="0" result="BackgroundImageFix"/>
<feColorMatrix in="SourceAlpha" type="matrix" values="0 0 0 0 0 0 0 0 0 0 0 0 0 0 0 0 0 0 127 0" result="hardAlpha"/>
<feOffset dx="0.33" dy="0.33"/>
<feGaussianBlur stdDeviation="0.83"/>
<feColorMatrix type="matrix" values="0 0 0 0 0.176471 0 0 0 0 0.0823529 0 0 0 0 0.286275 0 0 0 0.3 0"/>
<feBlend mode="normal" in2="BackgroundImageFix" result="effect1_dropShadow_4430_1647"/>
<feBlend mode="normal" in="SourceGraphic" in2="effect1_dropShadow_4430_1647" result="shape"/>
</filter>
<filter id="filter4_d_4430_1647" x="211.75" y="119.29" width="3.71001" height="3.39031" filterUnits="userSpaceOnUse" color-interpolation-filters="sRGB">
<feFlood flood-opacity="0" result="BackgroundImageFix"/>
<feColorMatrix in="SourceAlpha" type="matrix" values="0 0 0 0 0 0 0 0 0 0 0 0 0 0 0 0 0 0 127 0" result="hardAlpha"/>
<feOffset dx="0.33" dy="0.33"/>
<feGaussianBlur stdDeviation="0.83"/>
<feColorMatrix type="matrix" values="0 0 0 0 0.176471 0 0 0 0 0.0823529 0 0 0 0 0.286275 0 0 0 0.3 0"/>
<feBlend mode="normal" in2="BackgroundImageFix" result="effect1_dropShadow_4430_1647"/>
<feBlend mode="normal" in="SourceGraphic" in2="effect1_dropShadow_4430_1647" result="shape"/>
</filter>
<filter id="filter5_d_4430_1647" x="208.9" y="118.53" width="3.69" height="3.44012" filterUnits="userSpaceOnUse" color-interpolation-filters="sRGB">
<feFlood flood-opacity="0" result="BackgroundImageFix"/>
<feColorMatrix in="SourceAlpha" type="matrix" values="0 0 0 0 0 0 0 0 0 0 0 0 0 0 0 0 0 0 127 0" result="hardAlpha"/>
<feOffset dx="0.33" dy="0.33"/>
<feGaussianBlur stdDeviation="0.83"/>
<feColorMatrix type="matrix" values="0 0 0 0 0.176471 0 0 0 0 0.0823529 0 0 0 0 0.286275 0 0 0 0.3 0"/>
<feBlend mode="normal" in2="BackgroundImageFix" result="effect1_dropShadow_4430_1647"/>
<feBlend mode="normal" in="SourceGraphic" in2="effect1_dropShadow_4430_1647" result="shape"/>
</filter>
<filter id="filter6_d_4430_1647" x="214.41" y="119.65" width="3.73003" height="3.35027" filterUnits="userSpaceOnUse" color-interpolation-filters="sRGB">
<feFlood flood-opacity="0" result="BackgroundImageFix"/>
<feColorMatrix in="SourceAlpha" type="matrix" values="0 0 0 0 0 0 0 0 0 0 0 0 0 0 0 0 0 0 127 0" result="hardAlpha"/>
<feOffset dx="0.33" dy="0.33"/>
<feGaussianBlur stdDeviation="0.83"/>
<feColorMatrix type="matrix" values="0 0 0 0 0.176471 0 0 0 0 0.0823529 0 0 0 0 0.286275 0 0 0 0.3 0"/>
<feBlend mode="normal" in2="BackgroundImageFix" result="effect1_dropShadow_4430_1647"/>
<feBlend mode="normal" in="SourceGraphic" in2="effect1_dropShadow_4430_1647" result="shape"/>
</filter>
<linearGradient id="paint0_linear_4430_1647" x1="187.65" y1="78.4704" x2="246.79" y2="78.4704" gradientUnits="userSpaceOnUse">
<stop stop-color="#FF4F59"/>
<stop offset="0.51" stop-color="#FF505A"/>
<stop offset="0.69" stop-color="#FF5761"/>
<stop offset="0.82" stop-color="#FF626D"/>
<stop offset="0.93" stop-color="#FF727E"/>
<stop offset="1" stop-color="#FF838F"/>
</linearGradient>
<linearGradient id="paint1_linear_4430_1647" x1="186.067" y1="120.922" x2="196.738" y2="45.4736" gradientUnits="userSpaceOnUse">
<stop stop-color="#FFFAF3" stop-opacity="0.1"/>
<stop offset="0.33" stop-color="#FFFAF3" stop-opacity="0.11"/>
<stop offset="0.48" stop-color="#FFFAF3" stop-opacity="0.14"/>
<stop offset="0.58" stop-color="#FFFAF3" stop-opacity="0.18"/>
<stop offset="0.66" stop-color="#FFFAF3" stop-opacity="0.25"/>
<stop offset="0.74" stop-color="#FFFAF3" stop-opacity="0.34"/>
<stop offset="0.81" stop-color="#FFFAF3" stop-opacity="0.45"/>
<stop offset="0.87" stop-color="#FFFAF3" stop-opacity="0.59"/>
<stop offset="0.92" stop-color="#FFFAF3" stop-opacity="0.74"/>
<stop offset="0.98" stop-color="#FFFAF3" stop-opacity="0.91"/>
<stop offset="1" stop-color="#FFFAF3"/>
</linearGradient>
<linearGradient id="paint2_linear_4430_1647" x1="194.86" y1="120.93" x2="276.42" y2="120.93" gradientUnits="userSpaceOnUse">
<stop stop-color="#FF4F59"/>
<stop offset="0.51" stop-color="#FF505A"/>
<stop offset="0.69" stop-color="#FF5761"/>
<stop offset="0.82" stop-color="#FF626D"/>
<stop offset="0.93" stop-color="#FF727E"/>
<stop offset="1" stop-color="#FF838F"/>
</linearGradient>
<linearGradient id="paint3_linear_4430_1647" x1="194.86" y1="88.1403" x2="276.42" y2="88.1403" gradientUnits="userSpaceOnUse">
<stop stop-color="#FF4F59"/>
<stop offset="0.51" stop-color="#FF505A"/>
<stop offset="0.69" stop-color="#FF5761"/>
<stop offset="0.82" stop-color="#FF626D"/>
<stop offset="0.93" stop-color="#FF727E"/>
<stop offset="1" stop-color="#FF838F"/>
</linearGradient>
<linearGradient id="paint4_linear_4430_1647" x1="194.86" y1="118.6" x2="276.421" y2="118.6" gradientUnits="userSpaceOnUse">
<stop stop-color="#FF4F59"/>
<stop offset="0.51" stop-color="#FF505A"/>
<stop offset="0.69" stop-color="#FF5761"/>
<stop offset="0.82" stop-color="#FF626D"/>
<stop offset="0.93" stop-color="#FF727E"/>
<stop offset="1" stop-color="#FF838F"/>
</linearGradient>
<linearGradient id="paint5_linear_4430_1647" x1="194.86" y1="120.3" x2="276.42" y2="120.3" gradientUnits="userSpaceOnUse">
<stop stop-color="#FF4F59"/>
<stop offset="0.51" stop-color="#FF505A"/>
<stop offset="0.69" stop-color="#FF5761"/>
<stop offset="0.82" stop-color="#FF626D"/>
<stop offset="0.93" stop-color="#FF727E"/>
<stop offset="1" stop-color="#FF838F"/>
</linearGradient>
<linearGradient id="paint6_linear_4430_1647" x1="194.86" y1="119.22" x2="276.421" y2="119.22" gradientUnits="userSpaceOnUse">
<stop stop-color="#FF4F59"/>
<stop offset="0.51" stop-color="#FF505A"/>
<stop offset="0.69" stop-color="#FF5761"/>
<stop offset="0.82" stop-color="#FF626D"/>
<stop offset="0.93" stop-color="#FF727E"/>
<stop offset="1" stop-color="#FF838F"/>
</linearGradient>
<linearGradient id="paint7_linear_4430_1647" x1="194.86" y1="119.71" x2="276.419" y2="119.71" gradientUnits="userSpaceOnUse">
<stop stop-color="#FF4F59"/>
<stop offset="0.51" stop-color="#FF505A"/>
<stop offset="0.69" stop-color="#FF5761"/>
<stop offset="0.82" stop-color="#FF626D"/>
<stop offset="0.93" stop-color="#FF727E"/>
<stop offset="1" stop-color="#FF838F"/>
</linearGradient>
<linearGradient id="paint8_linear_4430_1647" x1="194.86" y1="120.76" x2="276.42" y2="120.76" gradientUnits="userSpaceOnUse">
<stop stop-color="#FF4F59"/>
<stop offset="0.51" stop-color="#FF505A"/>
<stop offset="0.69" stop-color="#FF5761"/>
<stop offset="0.82" stop-color="#FF626D"/>
<stop offset="0.93" stop-color="#FF727E"/>
<stop offset="1" stop-color="#FF838F"/>
</linearGradient>
<linearGradient id="paint9_linear_4430_1647" x1="194.86" y1="118.17" x2="276.42" y2="118.17" gradientUnits="userSpaceOnUse">
<stop stop-color="#FF4F59"/>
<stop offset="0.51" stop-color="#FF505A"/>
<stop offset="0.69" stop-color="#FF5761"/>
<stop offset="0.82" stop-color="#FF626D"/>
<stop offset="0.93" stop-color="#FF727E"/>
<stop offset="1" stop-color="#FF838F"/>
</linearGradient>
<linearGradient id="paint10_linear_4430_1647" x1="165.817" y1="118.053" x2="176.483" y2="42.6183" gradientUnits="userSpaceOnUse">
<stop stop-color="#FFFAF3" stop-opacity="0.1"/>
<stop offset="0.33" stop-color="#FFFAF3" stop-opacity="0.11"/>
<stop offset="0.48" stop-color="#FFFAF3" stop-opacity="0.14"/>
<stop offset="0.58" stop-color="#FFFAF3" stop-opacity="0.18"/>
<stop offset="0.66" stop-color="#FFFAF3" stop-opacity="0.25"/>
<stop offset="0.74" stop-color="#FFFAF3" stop-opacity="0.34"/>
<stop offset="0.81" stop-color="#FFFAF3" stop-opacity="0.45"/>
<stop offset="0.87" stop-color="#FFFAF3" stop-opacity="0.59"/>
<stop offset="0.92" stop-color="#FFFAF3" stop-opacity="0.74"/>
<stop offset="0.98" stop-color="#FFFAF3" stop-opacity="0.91"/>
<stop offset="1" stop-color="#FFFAF3"/>
</linearGradient>
<linearGradient id="paint11_linear_4430_1647" x1="162.308" y1="117.559" x2="172.979" y2="42.1104" gradientUnits="userSpaceOnUse">
<stop stop-color="#FFFAF3" stop-opacity="0.1"/>
<stop offset="0.33" stop-color="#FFFAF3" stop-opacity="0.11"/>
<stop offset="0.48" stop-color="#FFFAF3" stop-opacity="0.14"/>
<stop offset="0.58" stop-color="#FFFAF3" stop-opacity="0.18"/>
<stop offset="0.66" stop-color="#FFFAF3" stop-opacity="0.25"/>
<stop offset="0.74" stop-color="#FFFAF3" stop-opacity="0.34"/>
<stop offset="0.81" stop-color="#FFFAF3" stop-opacity="0.45"/>
<stop offset="0.87" stop-color="#FFFAF3" stop-opacity="0.59"/>
<stop offset="0.92" stop-color="#FFFAF3" stop-opacity="0.74"/>
<stop offset="0.98" stop-color="#FFFAF3" stop-opacity="0.91"/>
<stop offset="1" stop-color="#FFFAF3"/>
</linearGradient>
<linearGradient id="paint12_linear_4430_1647" x1="194.86" y1="81.9404" x2="276.42" y2="81.9404" gradientUnits="userSpaceOnUse">
<stop stop-color="#FF4F59"/>
<stop offset="0.51" stop-color="#FF505A"/>
<stop offset="0.69" stop-color="#FF5761"/>
<stop offset="0.82" stop-color="#FF626D"/>
<stop offset="0.93" stop-color="#FF727E"/>
<stop offset="1" stop-color="#FF838F"/>
</linearGradient>
<linearGradient id="paint13_linear_4430_1647" x1="204.712" y1="123.553" x2="215.387" y2="48.1142" gradientUnits="userSpaceOnUse">
<stop stop-color="#FFFAF3" stop-opacity="0.1"/>
<stop offset="0.33" stop-color="#FFFAF3" stop-opacity="0.11"/>
<stop offset="0.48" stop-color="#FFFAF3" stop-opacity="0.14"/>
<stop offset="0.58" stop-color="#FFFAF3" stop-opacity="0.18"/>
<stop offset="0.66" stop-color="#FFFAF3" stop-opacity="0.25"/>
<stop offset="0.74" stop-color="#FFFAF3" stop-opacity="0.34"/>
<stop offset="0.81" stop-color="#FFFAF3" stop-opacity="0.45"/>
<stop offset="0.87" stop-color="#FFFAF3" stop-opacity="0.59"/>
<stop offset="0.92" stop-color="#FFFAF3" stop-opacity="0.74"/>
<stop offset="0.98" stop-color="#FFFAF3" stop-opacity="0.91"/>
<stop offset="1" stop-color="#FFFAF3"/>
</linearGradient>
<linearGradient id="paint14_linear_4430_1647" x1="214.844" y1="124.99" x2="225.519" y2="49.5508" gradientUnits="userSpaceOnUse">
<stop stop-color="#FFFAF3" stop-opacity="0.1"/>
<stop offset="0.33" stop-color="#FFFAF3" stop-opacity="0.11"/>
<stop offset="0.48" stop-color="#FFFAF3" stop-opacity="0.14"/>
<stop offset="0.58" stop-color="#FFFAF3" stop-opacity="0.18"/>
<stop offset="0.66" stop-color="#FFFAF3" stop-opacity="0.25"/>
<stop offset="0.74" stop-color="#FFFAF3" stop-opacity="0.34"/>
<stop offset="0.81" stop-color="#FFFAF3" stop-opacity="0.45"/>
<stop offset="0.87" stop-color="#FFFAF3" stop-opacity="0.59"/>
<stop offset="0.92" stop-color="#FFFAF3" stop-opacity="0.74"/>
<stop offset="0.98" stop-color="#FFFAF3" stop-opacity="0.91"/>
<stop offset="1" stop-color="#FFFAF3"/>
</linearGradient>
<linearGradient id="paint15_linear_4430_1647" x1="219.222" y1="125.607" x2="229.894" y2="50.1594" gradientUnits="userSpaceOnUse">
<stop stop-color="#FFFAF3" stop-opacity="0.1"/>
<stop offset="0.33" stop-color="#FFFAF3" stop-opacity="0.11"/>
<stop offset="0.48" stop-color="#FFFAF3" stop-opacity="0.14"/>
<stop offset="0.58" stop-color="#FFFAF3" stop-opacity="0.18"/>
<stop offset="0.66" stop-color="#FFFAF3" stop-opacity="0.25"/>
<stop offset="0.74" stop-color="#FFFAF3" stop-opacity="0.34"/>
<stop offset="0.81" stop-color="#FFFAF3" stop-opacity="0.45"/>
<stop offset="0.87" stop-color="#FFFAF3" stop-opacity="0.59"/>
<stop offset="0.92" stop-color="#FFFAF3" stop-opacity="0.74"/>
<stop offset="0.98" stop-color="#FFFAF3" stop-opacity="0.91"/>
<stop offset="1" stop-color="#FFFAF3"/>
</linearGradient>
<linearGradient id="paint16_linear_4430_1647" x1="215.492" y1="125.073" x2="226.158" y2="49.6386" gradientUnits="userSpaceOnUse">
<stop stop-color="#FFFAF3" stop-opacity="0.1"/>
<stop offset="0.33" stop-color="#FFFAF3" stop-opacity="0.11"/>
<stop offset="0.48" stop-color="#FFFAF3" stop-opacity="0.14"/>
<stop offset="0.58" stop-color="#FFFAF3" stop-opacity="0.18"/>
<stop offset="0.66" stop-color="#FFFAF3" stop-opacity="0.25"/>
<stop offset="0.74" stop-color="#FFFAF3" stop-opacity="0.34"/>
<stop offset="0.81" stop-color="#FFFAF3" stop-opacity="0.45"/>
<stop offset="0.87" stop-color="#FFFAF3" stop-opacity="0.59"/>
<stop offset="0.92" stop-color="#FFFAF3" stop-opacity="0.74"/>
<stop offset="0.98" stop-color="#FFFAF3" stop-opacity="0.91"/>
<stop offset="1" stop-color="#FFFAF3"/>
</linearGradient>
<linearGradient id="paint17_linear_4430_1647" x1="214.649" y1="124.961" x2="225.324" y2="49.5219" gradientUnits="userSpaceOnUse">
<stop stop-color="#FFFAF3" stop-opacity="0.1"/>
<stop offset="0.33" stop-color="#FFFAF3" stop-opacity="0.11"/>
<stop offset="0.48" stop-color="#FFFAF3" stop-opacity="0.14"/>
<stop offset="0.58" stop-color="#FFFAF3" stop-opacity="0.18"/>
<stop offset="0.66" stop-color="#FFFAF3" stop-opacity="0.25"/>
<stop offset="0.74" stop-color="#FFFAF3" stop-opacity="0.34"/>
<stop offset="0.81" stop-color="#FFFAF3" stop-opacity="0.45"/>
<stop offset="0.87" stop-color="#FFFAF3" stop-opacity="0.59"/>
<stop offset="0.92" stop-color="#FFFAF3" stop-opacity="0.74"/>
<stop offset="0.98" stop-color="#FFFAF3" stop-opacity="0.91"/>
<stop offset="1" stop-color="#FFFAF3"/>
</linearGradient>
<linearGradient id="paint18_linear_4430_1647" x1="214.42" y1="124.924" x2="225.098" y2="49.4857" gradientUnits="userSpaceOnUse">
<stop stop-color="#FFFAF3" stop-opacity="0.1"/>
<stop offset="0.33" stop-color="#FFFAF3" stop-opacity="0.11"/>
<stop offset="0.48" stop-color="#FFFAF3" stop-opacity="0.14"/>
<stop offset="0.58" stop-color="#FFFAF3" stop-opacity="0.18"/>
<stop offset="0.66" stop-color="#FFFAF3" stop-opacity="0.25"/>
<stop offset="0.74" stop-color="#FFFAF3" stop-opacity="0.34"/>
<stop offset="0.81" stop-color="#FFFAF3" stop-opacity="0.45"/>
<stop offset="0.87" stop-color="#FFFAF3" stop-opacity="0.59"/>
<stop offset="0.92" stop-color="#FFFAF3" stop-opacity="0.74"/>
<stop offset="0.98" stop-color="#FFFAF3" stop-opacity="0.91"/>
<stop offset="1" stop-color="#FFFAF3"/>
</linearGradient>
<linearGradient id="paint19_linear_4430_1647" x1="215.611" y1="125.102" x2="226.283" y2="49.6531" gradientUnits="userSpaceOnUse">
<stop stop-color="#FFFAF3" stop-opacity="0.1"/>
<stop offset="0.33" stop-color="#FFFAF3" stop-opacity="0.11"/>
<stop offset="0.48" stop-color="#FFFAF3" stop-opacity="0.14"/>
<stop offset="0.58" stop-color="#FFFAF3" stop-opacity="0.18"/>
<stop offset="0.66" stop-color="#FFFAF3" stop-opacity="0.25"/>
<stop offset="0.74" stop-color="#FFFAF3" stop-opacity="0.34"/>
<stop offset="0.81" stop-color="#FFFAF3" stop-opacity="0.45"/>
<stop offset="0.87" stop-color="#FFFAF3" stop-opacity="0.59"/>
<stop offset="0.92" stop-color="#FFFAF3" stop-opacity="0.74"/>
<stop offset="0.98" stop-color="#FFFAF3" stop-opacity="0.91"/>
<stop offset="1" stop-color="#FFFAF3"/>
</linearGradient>
<linearGradient id="paint20_linear_4430_1647" x1="214.694" y1="124.964" x2="225.369" y2="49.525" gradientUnits="userSpaceOnUse">
<stop stop-color="#FFFAF3" stop-opacity="0.1"/>
<stop offset="0.33" stop-color="#FFFAF3" stop-opacity="0.11"/>
<stop offset="0.48" stop-color="#FFFAF3" stop-opacity="0.14"/>
<stop offset="0.58" stop-color="#FFFAF3" stop-opacity="0.18"/>
<stop offset="0.66" stop-color="#FFFAF3" stop-opacity="0.25"/>
<stop offset="0.74" stop-color="#FFFAF3" stop-opacity="0.34"/>
<stop offset="0.81" stop-color="#FFFAF3" stop-opacity="0.45"/>
<stop offset="0.87" stop-color="#FFFAF3" stop-opacity="0.59"/>
<stop offset="0.92" stop-color="#FFFAF3" stop-opacity="0.74"/>
<stop offset="0.98" stop-color="#FFFAF3" stop-opacity="0.91"/>
<stop offset="1" stop-color="#FFFAF3"/>
</linearGradient>
<linearGradient id="paint21_linear_4430_1647" x1="215.997" y1="125.15" x2="226.672" y2="49.7109" gradientUnits="userSpaceOnUse">
<stop stop-color="#FFFAF3" stop-opacity="0.1"/>
<stop offset="0.33" stop-color="#FFFAF3" stop-opacity="0.11"/>
<stop offset="0.48" stop-color="#FFFAF3" stop-opacity="0.14"/>
<stop offset="0.58" stop-color="#FFFAF3" stop-opacity="0.18"/>
<stop offset="0.66" stop-color="#FFFAF3" stop-opacity="0.25"/>
<stop offset="0.74" stop-color="#FFFAF3" stop-opacity="0.34"/>
<stop offset="0.81" stop-color="#FFFAF3" stop-opacity="0.45"/>
<stop offset="0.87" stop-color="#FFFAF3" stop-opacity="0.59"/>
<stop offset="0.92" stop-color="#FFFAF3" stop-opacity="0.74"/>
<stop offset="0.98" stop-color="#FFFAF3" stop-opacity="0.91"/>
<stop offset="1" stop-color="#FFFAF3"/>
</linearGradient>
<linearGradient id="paint22_linear_4430_1647" x1="215.106" y1="125.024" x2="225.781" y2="49.5857" gradientUnits="userSpaceOnUse">
<stop stop-color="#FFFAF3" stop-opacity="0.1"/>
<stop offset="0.33" stop-color="#FFFAF3" stop-opacity="0.11"/>
<stop offset="0.48" stop-color="#FFFAF3" stop-opacity="0.14"/>
<stop offset="0.58" stop-color="#FFFAF3" stop-opacity="0.18"/>
<stop offset="0.66" stop-color="#FFFAF3" stop-opacity="0.25"/>
<stop offset="0.74" stop-color="#FFFAF3" stop-opacity="0.34"/>
<stop offset="0.81" stop-color="#FFFAF3" stop-opacity="0.45"/>
<stop offset="0.87" stop-color="#FFFAF3" stop-opacity="0.59"/>
<stop offset="0.92" stop-color="#FFFAF3" stop-opacity="0.74"/>
<stop offset="0.98" stop-color="#FFFAF3" stop-opacity="0.91"/>
<stop offset="1" stop-color="#FFFAF3"/>
</linearGradient>
<linearGradient id="paint23_linear_4430_1647" x1="215.048" y1="125.016" x2="225.71" y2="49.5708" gradientUnits="userSpaceOnUse">
<stop stop-color="#FFFAF3" stop-opacity="0.1"/>
<stop offset="0.33" stop-color="#FFFAF3" stop-opacity="0.11"/>
<stop offset="0.48" stop-color="#FFFAF3" stop-opacity="0.14"/>
<stop offset="0.58" stop-color="#FFFAF3" stop-opacity="0.18"/>
<stop offset="0.66" stop-color="#FFFAF3" stop-opacity="0.25"/>
<stop offset="0.74" stop-color="#FFFAF3" stop-opacity="0.34"/>
<stop offset="0.81" stop-color="#FFFAF3" stop-opacity="0.45"/>
<stop offset="0.87" stop-color="#FFFAF3" stop-opacity="0.59"/>
<stop offset="0.92" stop-color="#FFFAF3" stop-opacity="0.74"/>
<stop offset="0.98" stop-color="#FFFAF3" stop-opacity="0.91"/>
<stop offset="1" stop-color="#FFFAF3"/>
</linearGradient>
<linearGradient id="paint24_linear_4430_1647" x1="214.888" y1="124.993" x2="225.563" y2="49.554" gradientUnits="userSpaceOnUse">
<stop stop-color="#FFFAF3" stop-opacity="0.1"/>
<stop offset="0.33" stop-color="#FFFAF3" stop-opacity="0.11"/>
<stop offset="0.48" stop-color="#FFFAF3" stop-opacity="0.14"/>
<stop offset="0.58" stop-color="#FFFAF3" stop-opacity="0.18"/>
<stop offset="0.66" stop-color="#FFFAF3" stop-opacity="0.25"/>
<stop offset="0.74" stop-color="#FFFAF3" stop-opacity="0.34"/>
<stop offset="0.81" stop-color="#FFFAF3" stop-opacity="0.45"/>
<stop offset="0.87" stop-color="#FFFAF3" stop-opacity="0.59"/>
<stop offset="0.92" stop-color="#FFFAF3" stop-opacity="0.74"/>
<stop offset="0.98" stop-color="#FFFAF3" stop-opacity="0.91"/>
<stop offset="1" stop-color="#FFFAF3"/>
</linearGradient>
<linearGradient id="paint25_linear_4430_1647" x1="214.533" y1="124.942" x2="225.195" y2="49.498" gradientUnits="userSpaceOnUse">
<stop stop-color="#FFFAF3" stop-opacity="0.1"/>
<stop offset="0.33" stop-color="#FFFAF3" stop-opacity="0.11"/>
<stop offset="0.48" stop-color="#FFFAF3" stop-opacity="0.14"/>
<stop offset="0.58" stop-color="#FFFAF3" stop-opacity="0.18"/>
<stop offset="0.66" stop-color="#FFFAF3" stop-opacity="0.25"/>
<stop offset="0.74" stop-color="#FFFAF3" stop-opacity="0.34"/>
<stop offset="0.81" stop-color="#FFFAF3" stop-opacity="0.45"/>
<stop offset="0.87" stop-color="#FFFAF3" stop-opacity="0.59"/>
<stop offset="0.92" stop-color="#FFFAF3" stop-opacity="0.74"/>
<stop offset="0.98" stop-color="#FFFAF3" stop-opacity="0.91"/>
<stop offset="1" stop-color="#FFFAF3"/>
</linearGradient>
<linearGradient id="paint26_linear_4430_1647" x1="215.358" y1="125.062" x2="226.033" y2="49.6233" gradientUnits="userSpaceOnUse">
<stop stop-color="#FFFAF3" stop-opacity="0.1"/>
<stop offset="0.33" stop-color="#FFFAF3" stop-opacity="0.11"/>
<stop offset="0.48" stop-color="#FFFAF3" stop-opacity="0.14"/>
<stop offset="0.58" stop-color="#FFFAF3" stop-opacity="0.18"/>
<stop offset="0.66" stop-color="#FFFAF3" stop-opacity="0.25"/>
<stop offset="0.74" stop-color="#FFFAF3" stop-opacity="0.34"/>
<stop offset="0.81" stop-color="#FFFAF3" stop-opacity="0.45"/>
<stop offset="0.87" stop-color="#FFFAF3" stop-opacity="0.59"/>
<stop offset="0.92" stop-color="#FFFAF3" stop-opacity="0.74"/>
<stop offset="0.98" stop-color="#FFFAF3" stop-opacity="0.91"/>
<stop offset="1" stop-color="#FFFAF3"/>
</linearGradient>
<linearGradient id="paint27_linear_4430_1647" x1="215.368" y1="125.059" x2="226.033" y2="49.624" gradientUnits="userSpaceOnUse">
<stop stop-color="#FFFAF3" stop-opacity="0.1"/>
<stop offset="0.33" stop-color="#FFFAF3" stop-opacity="0.11"/>
<stop offset="0.48" stop-color="#FFFAF3" stop-opacity="0.14"/>
<stop offset="0.58" stop-color="#FFFAF3" stop-opacity="0.18"/>
<stop offset="0.66" stop-color="#FFFAF3" stop-opacity="0.25"/>
<stop offset="0.74" stop-color="#FFFAF3" stop-opacity="0.34"/>
<stop offset="0.81" stop-color="#FFFAF3" stop-opacity="0.45"/>
<stop offset="0.87" stop-color="#FFFAF3" stop-opacity="0.59"/>
<stop offset="0.92" stop-color="#FFFAF3" stop-opacity="0.74"/>
<stop offset="0.98" stop-color="#FFFAF3" stop-opacity="0.91"/>
<stop offset="1" stop-color="#FFFAF3"/>
</linearGradient>
<linearGradient id="paint28_linear_4430_1647" x1="213.69" y1="124.829" x2="224.362" y2="49.3807" gradientUnits="userSpaceOnUse">
<stop stop-color="#FFFAF3" stop-opacity="0.1"/>
<stop offset="0.33" stop-color="#FFFAF3" stop-opacity="0.11"/>
<stop offset="0.48" stop-color="#FFFAF3" stop-opacity="0.14"/>
<stop offset="0.58" stop-color="#FFFAF3" stop-opacity="0.18"/>
<stop offset="0.66" stop-color="#FFFAF3" stop-opacity="0.25"/>
<stop offset="0.74" stop-color="#FFFAF3" stop-opacity="0.34"/>
<stop offset="0.81" stop-color="#FFFAF3" stop-opacity="0.45"/>
<stop offset="0.87" stop-color="#FFFAF3" stop-opacity="0.59"/>
<stop offset="0.92" stop-color="#FFFAF3" stop-opacity="0.74"/>
<stop offset="0.98" stop-color="#FFFAF3" stop-opacity="0.91"/>
<stop offset="1" stop-color="#FFFAF3"/>
</linearGradient>
<linearGradient id="paint29_linear_4430_1647" x1="215.394" y1="125.07" x2="226.065" y2="49.6215" gradientUnits="userSpaceOnUse">
<stop stop-color="#FFFAF3" stop-opacity="0.1"/>
<stop offset="0.33" stop-color="#FFFAF3" stop-opacity="0.11"/>
<stop offset="0.48" stop-color="#FFFAF3" stop-opacity="0.14"/>
<stop offset="0.58" stop-color="#FFFAF3" stop-opacity="0.18"/>
<stop offset="0.66" stop-color="#FFFAF3" stop-opacity="0.25"/>
<stop offset="0.74" stop-color="#FFFAF3" stop-opacity="0.34"/>
<stop offset="0.81" stop-color="#FFFAF3" stop-opacity="0.45"/>
<stop offset="0.87" stop-color="#FFFAF3" stop-opacity="0.59"/>
<stop offset="0.92" stop-color="#FFFAF3" stop-opacity="0.74"/>
<stop offset="0.98" stop-color="#FFFAF3" stop-opacity="0.91"/>
<stop offset="1" stop-color="#FFFAF3"/>
</linearGradient>
<linearGradient id="paint30_linear_4430_1647" x1="214.373" y1="124.92" x2="225.048" y2="49.4809" gradientUnits="userSpaceOnUse">
<stop stop-color="#FFFAF3" stop-opacity="0.1"/>
<stop offset="0.33" stop-color="#FFFAF3" stop-opacity="0.11"/>
<stop offset="0.48" stop-color="#FFFAF3" stop-opacity="0.14"/>
<stop offset="0.58" stop-color="#FFFAF3" stop-opacity="0.18"/>
<stop offset="0.66" stop-color="#FFFAF3" stop-opacity="0.25"/>
<stop offset="0.74" stop-color="#FFFAF3" stop-opacity="0.34"/>
<stop offset="0.81" stop-color="#FFFAF3" stop-opacity="0.45"/>
<stop offset="0.87" stop-color="#FFFAF3" stop-opacity="0.59"/>
<stop offset="0.92" stop-color="#FFFAF3" stop-opacity="0.74"/>
<stop offset="0.98" stop-color="#FFFAF3" stop-opacity="0.91"/>
<stop offset="1" stop-color="#FFFAF3"/>
</linearGradient>
<linearGradient id="paint31_linear_4430_1647" x1="214.339" y1="124.913" x2="225.005" y2="49.4779" gradientUnits="userSpaceOnUse">
<stop stop-color="#FFFAF3" stop-opacity="0.1"/>
<stop offset="0.33" stop-color="#FFFAF3" stop-opacity="0.11"/>
<stop offset="0.48" stop-color="#FFFAF3" stop-opacity="0.14"/>
<stop offset="0.58" stop-color="#FFFAF3" stop-opacity="0.18"/>
<stop offset="0.66" stop-color="#FFFAF3" stop-opacity="0.25"/>
<stop offset="0.74" stop-color="#FFFAF3" stop-opacity="0.34"/>
<stop offset="0.81" stop-color="#FFFAF3" stop-opacity="0.45"/>
<stop offset="0.87" stop-color="#FFFAF3" stop-opacity="0.59"/>
<stop offset="0.92" stop-color="#FFFAF3" stop-opacity="0.74"/>
<stop offset="0.98" stop-color="#FFFAF3" stop-opacity="0.91"/>
<stop offset="1" stop-color="#FFFAF3"/>
</linearGradient>
<linearGradient id="paint32_linear_4430_1647" x1="214.364" y1="124.923" x2="225.033" y2="49.476" gradientUnits="userSpaceOnUse">
<stop stop-color="#FFFAF3" stop-opacity="0.1"/>
<stop offset="0.33" stop-color="#FFFAF3" stop-opacity="0.11"/>
<stop offset="0.48" stop-color="#FFFAF3" stop-opacity="0.14"/>
<stop offset="0.58" stop-color="#FFFAF3" stop-opacity="0.18"/>
<stop offset="0.66" stop-color="#FFFAF3" stop-opacity="0.25"/>
<stop offset="0.74" stop-color="#FFFAF3" stop-opacity="0.34"/>
<stop offset="0.81" stop-color="#FFFAF3" stop-opacity="0.45"/>
<stop offset="0.87" stop-color="#FFFAF3" stop-opacity="0.59"/>
<stop offset="0.92" stop-color="#FFFAF3" stop-opacity="0.74"/>
<stop offset="0.98" stop-color="#FFFAF3" stop-opacity="0.91"/>
<stop offset="1" stop-color="#FFFAF3"/>
</linearGradient>
<linearGradient id="paint33_linear_4430_1647" x1="214.259" y1="124.902" x2="224.934" y2="49.463" gradientUnits="userSpaceOnUse">
<stop stop-color="#FFFAF3" stop-opacity="0.1"/>
<stop offset="0.33" stop-color="#FFFAF3" stop-opacity="0.11"/>
<stop offset="0.48" stop-color="#FFFAF3" stop-opacity="0.14"/>
<stop offset="0.58" stop-color="#FFFAF3" stop-opacity="0.18"/>
<stop offset="0.66" stop-color="#FFFAF3" stop-opacity="0.25"/>
<stop offset="0.74" stop-color="#FFFAF3" stop-opacity="0.34"/>
<stop offset="0.81" stop-color="#FFFAF3" stop-opacity="0.45"/>
<stop offset="0.87" stop-color="#FFFAF3" stop-opacity="0.59"/>
<stop offset="0.92" stop-color="#FFFAF3" stop-opacity="0.74"/>
<stop offset="0.98" stop-color="#FFFAF3" stop-opacity="0.91"/>
<stop offset="1" stop-color="#FFFAF3"/>
</linearGradient>
<linearGradient id="paint34_linear_4430_1647" x1="214.498" y1="124.935" x2="225.173" y2="49.4961" gradientUnits="userSpaceOnUse">
<stop stop-color="#FFFAF3" stop-opacity="0.1"/>
<stop offset="0.33" stop-color="#FFFAF3" stop-opacity="0.11"/>
<stop offset="0.48" stop-color="#FFFAF3" stop-opacity="0.14"/>
<stop offset="0.58" stop-color="#FFFAF3" stop-opacity="0.18"/>
<stop offset="0.66" stop-color="#FFFAF3" stop-opacity="0.25"/>
<stop offset="0.74" stop-color="#FFFAF3" stop-opacity="0.34"/>
<stop offset="0.81" stop-color="#FFFAF3" stop-opacity="0.45"/>
<stop offset="0.87" stop-color="#FFFAF3" stop-opacity="0.59"/>
<stop offset="0.92" stop-color="#FFFAF3" stop-opacity="0.74"/>
<stop offset="0.98" stop-color="#FFFAF3" stop-opacity="0.91"/>
<stop offset="1" stop-color="#FFFAF3"/>
</linearGradient>
<linearGradient id="paint35_linear_4430_1647" x1="214.396" y1="124.925" x2="225.073" y2="49.482" gradientUnits="userSpaceOnUse">
<stop stop-color="#FFFAF3" stop-opacity="0.1"/>
<stop offset="0.33" stop-color="#FFFAF3" stop-opacity="0.11"/>
<stop offset="0.48" stop-color="#FFFAF3" stop-opacity="0.14"/>
<stop offset="0.58" stop-color="#FFFAF3" stop-opacity="0.18"/>
<stop offset="0.66" stop-color="#FFFAF3" stop-opacity="0.25"/>
<stop offset="0.74" stop-color="#FFFAF3" stop-opacity="0.34"/>
<stop offset="0.81" stop-color="#FFFAF3" stop-opacity="0.45"/>
<stop offset="0.87" stop-color="#FFFAF3" stop-opacity="0.59"/>
<stop offset="0.92" stop-color="#FFFAF3" stop-opacity="0.74"/>
<stop offset="0.98" stop-color="#FFFAF3" stop-opacity="0.91"/>
<stop offset="1" stop-color="#FFFAF3"/>
</linearGradient>
<linearGradient id="paint36_linear_4430_1647" x1="214.272" y1="124.908" x2="224.934" y2="49.4637" gradientUnits="userSpaceOnUse">
<stop stop-color="#FFFAF3" stop-opacity="0.1"/>
<stop offset="0.33" stop-color="#FFFAF3" stop-opacity="0.11"/>
<stop offset="0.48" stop-color="#FFFAF3" stop-opacity="0.14"/>
<stop offset="0.58" stop-color="#FFFAF3" stop-opacity="0.18"/>
<stop offset="0.66" stop-color="#FFFAF3" stop-opacity="0.25"/>
<stop offset="0.74" stop-color="#FFFAF3" stop-opacity="0.34"/>
<stop offset="0.81" stop-color="#FFFAF3" stop-opacity="0.45"/>
<stop offset="0.87" stop-color="#FFFAF3" stop-opacity="0.59"/>
<stop offset="0.92" stop-color="#FFFAF3" stop-opacity="0.74"/>
<stop offset="0.98" stop-color="#FFFAF3" stop-opacity="0.91"/>
<stop offset="1" stop-color="#FFFAF3"/>
</linearGradient>
<linearGradient id="paint37_linear_4430_1647" x1="214.489" y1="124.938" x2="225.164" y2="49.4992" gradientUnits="userSpaceOnUse">
<stop stop-color="#FFFAF3" stop-opacity="0.1"/>
<stop offset="0.33" stop-color="#FFFAF3" stop-opacity="0.11"/>
<stop offset="0.48" stop-color="#FFFAF3" stop-opacity="0.14"/>
<stop offset="0.58" stop-color="#FFFAF3" stop-opacity="0.18"/>
<stop offset="0.66" stop-color="#FFFAF3" stop-opacity="0.25"/>
<stop offset="0.74" stop-color="#FFFAF3" stop-opacity="0.34"/>
<stop offset="0.81" stop-color="#FFFAF3" stop-opacity="0.45"/>
<stop offset="0.87" stop-color="#FFFAF3" stop-opacity="0.59"/>
<stop offset="0.92" stop-color="#FFFAF3" stop-opacity="0.74"/>
<stop offset="0.98" stop-color="#FFFAF3" stop-opacity="0.91"/>
<stop offset="1" stop-color="#FFFAF3"/>
</linearGradient>
<linearGradient id="paint38_linear_4430_1647" x1="213.952" y1="124.864" x2="224.627" y2="49.4253" gradientUnits="userSpaceOnUse">
<stop stop-color="#FFFAF3" stop-opacity="0.1"/>
<stop offset="0.33" stop-color="#FFFAF3" stop-opacity="0.11"/>
<stop offset="0.48" stop-color="#FFFAF3" stop-opacity="0.14"/>
<stop offset="0.58" stop-color="#FFFAF3" stop-opacity="0.18"/>
<stop offset="0.66" stop-color="#FFFAF3" stop-opacity="0.25"/>
<stop offset="0.74" stop-color="#FFFAF3" stop-opacity="0.34"/>
<stop offset="0.81" stop-color="#FFFAF3" stop-opacity="0.45"/>
<stop offset="0.87" stop-color="#FFFAF3" stop-opacity="0.59"/>
<stop offset="0.92" stop-color="#FFFAF3" stop-opacity="0.74"/>
<stop offset="0.98" stop-color="#FFFAF3" stop-opacity="0.91"/>
<stop offset="1" stop-color="#FFFAF3"/>
</linearGradient>
<linearGradient id="paint39_linear_4430_1647" x1="214.227" y1="124.904" x2="224.898" y2="49.4561" gradientUnits="userSpaceOnUse">
<stop stop-color="#FFFAF3" stop-opacity="0.1"/>
<stop offset="0.33" stop-color="#FFFAF3" stop-opacity="0.11"/>
<stop offset="0.48" stop-color="#FFFAF3" stop-opacity="0.14"/>
<stop offset="0.58" stop-color="#FFFAF3" stop-opacity="0.18"/>
<stop offset="0.66" stop-color="#FFFAF3" stop-opacity="0.25"/>
<stop offset="0.74" stop-color="#FFFAF3" stop-opacity="0.34"/>
<stop offset="0.81" stop-color="#FFFAF3" stop-opacity="0.45"/>
<stop offset="0.87" stop-color="#FFFAF3" stop-opacity="0.59"/>
<stop offset="0.92" stop-color="#FFFAF3" stop-opacity="0.74"/>
<stop offset="0.98" stop-color="#FFFAF3" stop-opacity="0.91"/>
<stop offset="1" stop-color="#FFFAF3"/>
</linearGradient>
<clipPath id="clip0_4430_1647">
<rect width="345" height="159" rx="12" fill="white"/>
</clipPath>
</defs>
</svg>
