<svg width="345" height="159" viewBox="0 0 345 159" fill="none" xmlns="http://www.w3.org/2000/svg">
<g clip-path="url(#clip0_4430_1564)">
<path d="M333 0H12C5.37258 0 0 5.37258 0 12V147C0 153.627 5.37258 159 12 159H333C339.627 159 345 153.627 345 147V12C345 5.37258 339.627 0 333 0Z" fill="#FEDD00"/>
<path d="M130 159H0V0H190L130 159Z" fill="#7539AE"/>
<g filter="url(#filter0_d_4430_1564)">
<path d="M325.01 62.5102V128.44C325.01 133.32 321.05 137.28 316.17 137.28H188.7C182 137.28 176.56 131.84 176.56 125.14V65.8002C176.56 59.1002 182 53.6602 188.7 53.6602L316.17 53.6602C321.05 53.6602 325.01 57.6202 325.01 62.5002V62.5102Z" fill="#7539AE"/>
</g>
<path d="M325 62.5099V128.44C325 133.32 321.04 137.28 316.16 137.28H311.07V53.6699H316.16C321.04 53.6699 325 57.6299 325 62.5099Z" fill="#183B1B"/>
<path d="M281.68 68.0703H215.95C211.41 68.0703 207.73 71.7505 207.73 76.2903V110.77C207.73 115.31 211.41 118.99 215.95 118.99H281.68C286.22 118.99 289.9 115.31 289.9 110.77V76.2903C289.9 71.7505 286.22 68.0703 281.68 68.0703Z" fill="#FEF9F2"/>
<path d="M230.26 82.9707H215.54C214.971 82.9707 214.51 83.4318 214.51 84.0007V84.0107C214.51 84.5796 214.971 85.0407 215.54 85.0407H230.26C230.829 85.0407 231.29 84.5796 231.29 84.0107V84.0007C231.29 83.4318 230.829 82.9707 230.26 82.9707Z" fill="#183B1B"/>
<path d="M252.07 82.9707H235.06C234.491 82.9707 234.03 83.4318 234.03 84.0007V84.0107C234.03 84.5796 234.491 85.0407 235.06 85.0407H252.07C252.639 85.0407 253.1 84.5796 253.1 84.0107V84.0007C253.1 83.4318 252.639 82.9707 252.07 82.9707Z" fill="#183B1B"/>
<path d="M252.06 87.1006H215.54C214.971 87.1006 214.51 87.5617 214.51 88.1306V88.1406C214.51 88.7094 214.971 89.1706 215.54 89.1706H252.06C252.629 89.1706 253.09 88.7094 253.09 88.1406V88.1306C253.09 87.5617 252.629 87.1006 252.06 87.1006Z" fill="#183B1B"/>
<path d="M241.92 91.2402H215.54C214.971 91.2402 214.51 91.7014 214.51 92.2702V92.2802C214.51 92.8491 214.971 93.3102 215.54 93.3102H241.92C242.489 93.3102 242.95 92.8491 242.95 92.2802V92.2702C242.95 91.7014 242.489 91.2402 241.92 91.2402Z" fill="#183B1B"/>
<path d="M221.4 95.3711H215.54C214.971 95.3711 214.51 95.8322 214.51 96.4011V96.4111C214.51 96.9799 214.971 97.4411 215.54 97.4411H221.4C221.969 97.4411 222.43 96.9799 222.43 96.4111V96.4011C222.43 95.8322 221.969 95.3711 221.4 95.3711Z" fill="#183B1B"/>
<path d="M231.22 95.3711H225.36C224.791 95.3711 224.33 95.8322 224.33 96.4011V96.4111C224.33 96.9799 224.791 97.4411 225.36 97.4411H231.22C231.789 97.4411 232.25 96.9799 232.25 96.4111V96.4011C232.25 95.8322 231.789 95.3711 231.22 95.3711Z" fill="#183B1B"/>
<path d="M275.55 79.3105H264.16C260.239 79.3105 257.06 82.4893 257.06 86.4106V99.3105C257.06 103.232 260.239 106.411 264.16 106.411H275.55C279.471 106.411 282.65 103.232 282.65 99.3105V86.4106C282.65 82.4893 279.471 79.3105 275.55 79.3105Z" fill="url(#paint0_linear_4430_1564)"/>
<path d="M273.33 96.9805H267.29C265.33 96.9805 263.57 98.1905 262.88 100.02L260.77 105.55C261.78 106.1 262.93 106.41 264.15 106.41H275.55C277.09 106.41 278.51 105.92 279.67 105.09L277.74 100.03C277.04 98.2005 275.29 96.9905 273.33 96.9905V96.9805Z" fill="#00CE66"/>
<path d="M272.37 96.7104L271.8 94.3604H268.4L267.82 96.7304L267.56 97.8103C268.08 98.0903 269.03 98.2803 270.13 98.2803C271.23 98.2803 272.12 98.1003 272.65 97.8403L272.37 96.7104Z" fill="#875151"/>
<path d="M270.1 95.7303C272.641 95.7303 274.7 93.6708 274.7 91.1303C274.7 88.5898 272.641 86.5303 270.1 86.5303C267.559 86.5303 265.5 88.5898 265.5 91.1303C265.5 93.6708 267.559 95.7303 270.1 95.7303Z" fill="#875151"/>
<path d="M271.5 93.1106C271.06 93.2506 270.59 93.3306 270.1 93.3306C269.61 93.3306 269.11 93.2506 268.66 93.1006" stroke="#6A3636" stroke-width="0.22" stroke-linecap="round" stroke-linejoin="round"/>
<path d="M270.1 86.5303C267.88 86.5303 266.02 88.1103 265.59 90.2003C265.97 89.6603 266.3 89.0903 266.64 88.5203C266.79 88.2703 267.06 88.1003 267.36 88.1003H272.67C272.98 88.1003 273.25 88.2703 273.39 88.5203C273.78 89.1903 274.18 89.8603 274.64 90.4803L274.66 90.5103C274.36 88.2603 272.43 86.5303 270.1 86.5303Z" fill="#183B1B"/>
<path d="M274.51 89.831V82.801C274.51 82.221 274.04 81.751 273.46 81.751H266.81C266.23 81.751 265.76 82.221 265.76 82.801V89.601C265.69 89.801 265.63 90.001 265.59 90.201C265.67 90.081 265.76 89.951 265.84 89.831C266.12 89.401 266.38 88.961 266.64 88.521C266.79 88.271 267.06 88.101 267.36 88.101H272.67C272.98 88.101 273.25 88.271 273.39 88.521C273.65 88.961 273.91 89.401 274.19 89.831C274.33 90.051 274.48 90.271 274.64 90.481L274.66 90.511C274.63 90.281 274.58 90.051 274.51 89.831Z" fill="#183B1B"/>
<path d="M274.963 89.5475L274.953 89.5463C274.679 89.5132 274.43 89.7086 274.397 89.9827L274.17 91.8591C274.137 92.1332 274.332 92.3823 274.606 92.4154L274.616 92.4166C274.89 92.4498 275.139 92.2544 275.173 91.9802L275.399 90.1039C275.432 89.8297 275.237 89.5806 274.963 89.5475Z" fill="#875151"/>
<path d="M265.325 89.5736L265.315 89.5748C265.041 89.6079 264.846 89.857 264.879 90.1312L265.106 92.0075C265.139 92.2817 265.388 92.477 265.662 92.4439L265.672 92.4427C265.946 92.4096 266.142 92.1605 266.109 91.8863L265.882 90.01C265.849 89.7358 265.6 89.5405 265.325 89.5736Z" fill="#875151"/>
<path d="M265.29 91.921C265.29 91.921 265.32 91.941 265.33 91.931C265.33 91.931 265.37 91.931 265.37 91.941C265.37 91.941 265.39 91.971 265.41 91.971C265.41 91.971 265.45 91.971 265.45 92.001C265.45 92.001 265.45 92.041 265.48 92.041C265.48 92.041 265.51 92.061 265.5 92.081C265.5 92.081 265.5 92.121 265.51 92.131C265.51 92.131 265.53 92.171 265.51 92.181C265.51 92.181 265.5 92.221 265.51 92.231C265.51 92.231 265.52 92.271 265.51 92.281C265.51 92.281 265.49 92.311 265.5 92.321C265.5 92.321 265.5 92.371 265.48 92.371C265.48 92.371 265.45 92.381 265.45 92.401C265.45 92.401 265.43 92.441 265.41 92.441C265.41 92.441 265.38 92.441 265.37 92.461C265.37 92.461 265.34 92.501 265.33 92.481C265.33 92.481 265.3 92.471 265.29 92.481C265.29 92.481 265.25 92.501 265.24 92.481C265.24 92.481 265.21 92.461 265.2 92.471C265.2 92.471 265.16 92.471 265.16 92.461C265.16 92.461 265.14 92.431 265.12 92.431C265.12 92.431 265.08 92.431 265.08 92.401C265.08 92.401 265.08 92.361 265.05 92.361C265.05 92.361 265.02 92.341 265.03 92.321C265.03 92.321 265.03 92.281 265.02 92.271C265.02 92.271 265 92.231 265.02 92.221C265.02 92.221 265.03 92.181 265.02 92.171C265.02 92.171 265.01 92.131 265.02 92.121C265.02 92.121 265.04 92.091 265.03 92.081C265.03 92.081 265.03 92.031 265.05 92.031C265.05 92.031 265.08 92.021 265.08 92.001C265.08 92.001 265.1 91.961 265.12 91.961C265.12 91.961 265.15 91.961 265.16 91.941C265.16 91.941 265.19 91.901 265.2 91.921C265.2 91.921 265.23 91.931 265.24 91.921C265.24 91.921 265.28 91.901 265.29 91.921Z" fill="#FEDD00"/>
<path d="M274.89 91.921C274.89 91.921 274.92 91.941 274.93 91.931C274.93 91.931 274.97 91.931 274.97 91.941C274.97 91.941 274.99 91.971 275.01 91.971C275.01 91.971 275.05 91.971 275.05 92.001C275.05 92.001 275.05 92.041 275.08 92.041C275.08 92.041 275.11 92.061 275.1 92.081C275.1 92.081 275.1 92.121 275.11 92.131C275.11 92.131 275.13 92.171 275.11 92.181C275.11 92.181 275.1 92.221 275.11 92.231C275.11 92.231 275.12 92.271 275.11 92.281C275.11 92.281 275.09 92.311 275.1 92.321C275.1 92.321 275.1 92.371 275.08 92.371C275.08 92.371 275.05 92.381 275.05 92.401C275.05 92.401 275.03 92.441 275.01 92.441C275.01 92.441 274.98 92.441 274.97 92.461C274.97 92.461 274.94 92.501 274.93 92.481C274.93 92.481 274.9 92.471 274.89 92.481C274.89 92.481 274.85 92.501 274.84 92.481C274.84 92.481 274.81 92.461 274.8 92.471C274.8 92.471 274.76 92.471 274.76 92.461C274.76 92.461 274.74 92.431 274.72 92.431C274.72 92.431 274.68 92.431 274.68 92.401C274.68 92.401 274.68 92.361 274.65 92.361C274.65 92.361 274.62 92.341 274.63 92.321C274.63 92.321 274.63 92.281 274.62 92.271C274.62 92.271 274.6 92.231 274.62 92.221C274.62 92.221 274.63 92.181 274.62 92.171C274.62 92.171 274.61 92.131 274.62 92.121C274.62 92.121 274.64 92.091 274.63 92.081C274.63 92.081 274.63 92.031 274.65 92.031C274.65 92.031 274.68 92.021 274.68 92.001C274.68 92.001 274.7 91.961 274.72 91.961C274.72 91.961 274.75 91.961 274.76 91.941C274.76 91.941 274.79 91.901 274.8 91.921C274.8 91.921 274.83 91.931 274.84 91.921C274.84 91.921 274.88 91.901 274.89 91.921Z" fill="#FEDD00"/>
<path d="M185.58 96.4004C187.364 96.4004 188.81 94.9543 188.81 93.1704C188.81 91.3865 187.364 89.9404 185.58 89.9404C183.796 89.9404 182.35 91.3865 182.35 93.1704C182.35 94.9543 183.796 96.4004 185.58 96.4004Z" fill="#183B1B"/>
<mask id="mask0_4430_1564" style="mask-type:alpha" maskUnits="userSpaceOnUse" x="0" y="0" width="190" height="159">
<path d="M130 159H12C5.37258 159 0 153.627 0 147V12C0 5.37258 5.37258 0 12 0H190L130 159Z" fill="#7539AE"/>
</mask>
<g mask="url(#mask0_4430_1564)">
<g filter="url(#filter1_d_4430_1564)">
<path d="M77.15 192.01C73.19 192.39 69.63 189.58 69.1 185.63L66 157.38L85.65 157.52L84.64 184.12C84.28 188.34 81.11 191.62 77.14 192.01H77.15Z" fill="#875151"/>
</g>
<g filter="url(#filter2_d_4430_1564)">
<path d="M60.59 143.92H60.45L60.56 143.98L60.59 143.92Z" fill="#875151"/>
<path d="M114.92 136.3L99.73 128.59L90.96 124.14L86.01 121.63C80.58 118.87 73.94 120.84 70.89 126.11L60.59 143.93L60.56 143.99L58.22 148.04C57.85 148.68 57.7 149.41 57.78 150.14L60.19 172.15C60.72 176.09 64.28 178.91 68.24 178.53C72.2 178.15 75.37 174.86 75.74 170.64L76.44 152.04L96.44 162.19L110.49 209.24L137.76 192.56L125.89 150.59L125.57 149.39C124.04 143.71 120.17 138.95 114.93 136.29L114.92 136.3Z" fill="#875151"/>
</g>
<path d="M50.86 5.38012H110.2C116.9 5.38012 122.34 10.8201 122.34 17.5201V144.99C122.34 149.87 118.38 153.83 113.5 153.83H47.57C42.69 153.83 38.73 149.87 38.73 144.99V17.5101C38.73 10.8101 44.17 5.37012 50.87 5.37012L50.86 5.38012Z" fill="#FEDD00"/>
<g filter="url(#filter3_d_4430_1564)">
<path d="M112.34 119.43C109.32 111.81 101.71 106.78 93.2199 106.78H67.0599C58.5699 106.78 50.9599 111.81 47.9399 119.43L39.6499 140.32H120.62L112.33 119.43H112.34Z" fill="#00CE66"/>
</g>
<path d="M89.05 104.24L86.57 94.0498H71.86L69.36 104.34L68.22 109.03C70.46 110.25 74.6 111.06 79.34 111.06C84.08 111.06 87.97 110.29 90.25 109.14L89.06 104.24H89.05Z" fill="#875151"/>
<path d="M79.21 99.9996C90.2171 99.9996 99.14 91.0767 99.14 80.0696C99.14 69.0626 90.2171 60.1396 79.21 60.1396C68.203 60.1396 59.28 69.0626 59.28 80.0696C59.28 91.0767 68.203 99.9996 79.21 99.9996Z" fill="#875151"/>
<path d="M85.28 88.6301C83.37 89.2401 81.33 89.5701 79.21 89.5701C77.09 89.5701 74.94 89.2201 72.98 88.5801" stroke="#6A3636" stroke-width="0.93" stroke-linecap="round" stroke-linejoin="round"/>
<path d="M98.3199 74.4399V43.9699C98.3199 41.4599 96.2799 39.4199 93.7699 39.4199H64.9699C62.4599 39.4199 60.4199 41.4599 60.4199 43.9699V73.4299C60.1199 74.2799 59.8799 75.1499 59.6899 76.0399C60.0599 75.5099 60.4099 74.9799 60.7699 74.4399C61.9799 72.5799 63.1099 70.6799 64.2299 68.7599C64.8599 67.6799 66.0299 66.9599 67.3699 66.9599H90.3499C91.6899 66.9599 92.8599 67.6799 93.4899 68.7599C94.6099 70.6699 95.7399 72.5799 96.9399 74.4399C97.5599 75.3999 98.2099 76.3399 98.8799 77.2699L98.9699 77.3899C98.8299 76.3799 98.6199 75.3999 98.3399 74.4499L98.3199 74.4399Z" fill="#183B1B"/>
<path d="M102.108 75.7068C102.253 74.5115 101.401 73.4255 100.206 73.2811C99.0105 73.1366 97.9244 73.9885 97.78 75.1838L96.7999 83.2948C96.6554 84.4901 97.5073 85.5761 98.7026 85.7206C99.8979 85.865 100.984 85.0131 101.128 83.8178L102.108 75.7068Z" fill="#875151"/>
<path d="M60.9538 75.192C60.8094 73.9967 59.7233 73.1448 58.528 73.2893C57.3327 73.4337 56.4809 74.5198 56.6253 75.715L57.6054 83.826C57.7498 85.0213 58.8359 85.8732 60.0312 85.7288C61.2265 85.5843 62.0783 84.4983 61.9339 83.303L60.9538 75.192Z" fill="#875151"/>
<path d="M58.3799 83.4897L58.3999 83.5197C58.4399 83.5797 58.5199 83.5997 58.5799 83.5497L58.5999 83.5297C58.6699 83.4697 58.7799 83.5097 58.7899 83.5997V83.6297C58.8099 83.6997 58.8799 83.7497 58.9499 83.7197H58.9799C59.0599 83.6797 59.1499 83.7497 59.1299 83.8397V83.8697C59.1099 83.9397 59.1699 84.0097 59.2399 84.0097H59.2699C59.3599 84.0097 59.4199 84.1097 59.3699 84.1797L59.3499 84.2097C59.3099 84.2697 59.3499 84.3497 59.4099 84.3797H59.4399C59.5299 84.4197 59.5499 84.5297 59.4699 84.5897L59.4399 84.6097C59.3799 84.6597 59.3799 84.7397 59.4399 84.7897L59.4699 84.8097C59.5399 84.8697 59.5199 84.9797 59.4399 85.0097H59.4099C59.3399 85.0397 59.3099 85.1297 59.3499 85.1897L59.3699 85.2197C59.4199 85.2997 59.3599 85.3997 59.2699 85.3897H59.2399C59.1699 85.3897 59.1099 85.4497 59.1199 85.5297V85.5597C59.1399 85.6497 59.0599 85.7197 58.9699 85.6897H58.9399C58.8699 85.6497 58.7999 85.6897 58.7799 85.7697V85.7997C58.7599 85.8897 58.6499 85.9297 58.5899 85.8697L58.5699 85.8497C58.5099 85.7997 58.4299 85.8197 58.3899 85.8797L58.3699 85.9097C58.3299 85.9897 58.2099 85.9897 58.1699 85.9097L58.1499 85.8797C58.1099 85.8197 58.0299 85.7997 57.9699 85.8497L57.9499 85.8697C57.8799 85.9297 57.7699 85.8897 57.7599 85.7997V85.7697C57.7399 85.6997 57.6699 85.6497 57.5999 85.6797H57.5699C57.4899 85.7197 57.3999 85.6497 57.4199 85.5597V85.5297C57.4399 85.4597 57.3799 85.3897 57.3099 85.3897H57.2799C57.1899 85.3897 57.1299 85.2897 57.1799 85.2197L57.1999 85.1897C57.2399 85.1297 57.1999 85.0497 57.1399 85.0197H57.1099C57.0199 84.9797 56.9999 84.8697 57.0799 84.8097L57.1099 84.7897C57.1699 84.7397 57.1699 84.6597 57.1099 84.6097L57.0799 84.5897C57.0099 84.5297 57.0299 84.4197 57.1099 84.3897H57.1399C57.2099 84.3597 57.2399 84.2697 57.1999 84.2097L57.1799 84.1797C57.1299 84.0997 57.1899 83.9997 57.2799 84.0097H57.3099C57.3799 84.0097 57.4399 83.9497 57.4299 83.8697V83.8397C57.4099 83.7497 57.4899 83.6797 57.5799 83.7097H57.6099C57.6799 83.7497 57.7499 83.7097 57.7699 83.6297V83.5997C57.7899 83.5097 57.8999 83.4697 57.9599 83.5297L57.9799 83.5497C58.0399 83.5997 58.1199 83.5797 58.1599 83.5197L58.1799 83.4897C58.2199 83.4097 58.3399 83.4097 58.3799 83.4897Z" fill="#FEDD00"/>
<path d="M99.96 83.4897L99.98 83.5197C100.02 83.5797 100.1 83.5997 100.16 83.5497L100.18 83.5297C100.25 83.4697 100.36 83.5097 100.37 83.5997V83.6297C100.39 83.6997 100.46 83.7497 100.53 83.7197H100.56C100.64 83.6797 100.73 83.7497 100.71 83.8397V83.8697C100.69 83.9397 100.75 84.0097 100.82 84.0097H100.85C100.94 84.0097 101 84.1097 100.95 84.1797L100.93 84.2097C100.89 84.2697 100.93 84.3497 100.99 84.3797H101.02C101.11 84.4197 101.13 84.5297 101.05 84.5897L101.02 84.6097C100.96 84.6597 100.96 84.7397 101.02 84.7897L101.05 84.8097C101.12 84.8697 101.1 84.9797 101.02 85.0097H100.99C100.92 85.0397 100.89 85.1297 100.93 85.1897L100.95 85.2197C101 85.2997 100.94 85.3997 100.85 85.3897H100.82C100.75 85.3897 100.69 85.4497 100.7 85.5297V85.5597C100.72 85.6497 100.64 85.7197 100.55 85.6897H100.52C100.45 85.6497 100.38 85.6897 100.36 85.7697V85.7997C100.34 85.8897 100.23 85.9297 100.17 85.8697L100.15 85.8497C100.09 85.7997 100.01 85.8197 99.97 85.8797L99.95 85.9097C99.91 85.9897 99.79 85.9897 99.75 85.9097L99.73 85.8797C99.69 85.8197 99.61 85.7997 99.55 85.8497L99.53 85.8697C99.46 85.9297 99.35 85.8897 99.34 85.7997V85.7697C99.32 85.6997 99.25 85.6497 99.18 85.6797H99.15C99.07 85.7197 98.98 85.6497 99 85.5597V85.5297C99.02 85.4597 98.96 85.3897 98.89 85.3897H98.86C98.77 85.3897 98.71 85.2897 98.76 85.2197L98.78 85.1897C98.82 85.1297 98.78 85.0497 98.72 85.0197H98.69C98.6 84.9797 98.58 84.8697 98.66 84.8097L98.69 84.7897C98.75 84.7397 98.75 84.6597 98.69 84.6097L98.66 84.5897C98.59 84.5297 98.61 84.4197 98.69 84.3897H98.72C98.79 84.3597 98.82 84.2697 98.78 84.2097L98.76 84.1797C98.71 84.0997 98.77 83.9997 98.86 84.0097H98.89C98.96 84.0097 99.02 83.9497 99.01 83.8697V83.8397C98.99 83.7497 99.07 83.6797 99.16 83.7097H99.19C99.26 83.7497 99.33 83.7097 99.35 83.6297V83.5997C99.37 83.5097 99.48 83.4697 99.54 83.5297L99.56 83.5497C99.62 83.5997 99.7 83.5797 99.74 83.5197L99.76 83.4897C99.8 83.4097 99.92 83.4097 99.96 83.4897Z" fill="#FEDD00"/>
<path d="M38.73 139.89H122.34V144.98C122.34 149.86 118.38 153.82 113.5 153.82H47.57C42.69 153.82 38.73 149.86 38.73 144.98V139.89Z" fill="#183B1B"/>
<path d="M108.69 112.22H101.58V111.22H107.69V105.11H108.69V112.22Z" fill="#FF4F59"/>
<path d="M51.3 112.22H58.41V111.22H52.3V105.11H51.3V112.22Z" fill="#FF4F59"/>
<path d="M108.69 55.4199H101.58V56.4199H107.69V62.5299H108.69V55.4199Z" fill="#FF4F59"/>
<path d="M51.3 55.4199H58.41V56.4199H52.3V62.5299H51.3V55.4199Z" fill="#FF4F59"/>
<path d="M80.44 17.8096C82.2238 17.8096 83.67 16.3635 83.67 14.5796C83.67 12.7957 82.2238 11.3496 80.44 11.3496C78.6561 11.3496 77.21 12.7957 77.21 14.5796C77.21 16.3635 78.6561 17.8096 80.44 17.8096Z" fill="#183B1B"/>
<path d="M80.25 151.07C80.25 151.07 80.35 151.09 80.4 151.09C80.4 151.09 80.3 151.08 80.25 151.07Z" fill="white"/>
<path d="M90.4399 145.31C90.4399 145.31 90.4799 145.22 90.4999 145.17C90.4799 145.22 90.4599 145.26 90.4399 145.31Z" fill="white"/>
<g filter="url(#filter4_d_4430_1564)">
<path d="M91.7701 135.37C88.3701 130 81.3101 128.22 75.7501 131.42C70.1901 134.62 68.1901 141.63 71.1401 147.27L90.0101 196.15C91.4201 199.82 93.9401 202.95 97.2201 205.12L110.06 213.64L129.71 202.31L128.28 186.83C127.95 183.2 126.57 179.74 124.32 176.87L91.7701 135.37Z" fill="url(#paint1_linear_4430_1564)"/>
</g>
<path d="M76.9901 133.569C72.4701 136.169 70.9201 141.939 73.5301 146.459C75.0201 149.039 77.5301 150.649 80.2601 151.069C80.3101 151.069 80.3601 151.079 80.4101 151.089L90.4501 145.309C90.4501 145.309 90.4901 145.219 90.5101 145.169C91.5101 142.599 91.3801 139.609 89.8901 137.029C87.2901 132.509 81.5201 130.959 77.0001 133.569H76.9901Z" fill="#FFC3C9"/>
<path d="M90.44 145.31C90.44 145.31 90.48 145.22 90.5 145.17C88.45 144.85 86.28 145.2 84.34 146.32C82.4 147.44 81.01 149.14 80.26 151.07C80.31 151.07 80.36 151.08 80.41 151.09L90.45 145.31H90.44Z" fill="#FFF9F2"/>
</g>
<g filter="url(#filter5_d_4430_1564)">
<path d="M228.76 31.4999L222.18 37.3099L223.57 42.7699L232.15 44.8399L319.01 22.7499L315.62 9.41992L228.76 31.4999Z" fill="#FEC3C9"/>
<path d="M217.62 41.3396L223.57 42.7696L222.18 37.3096L217.62 41.3396Z" fill="#7539AE"/>
<path d="M217.62 41.3396L223.57 42.7696L222.18 37.3096L217.62 41.3396Z" fill="url(#paint2_linear_4430_1564)"/>
<path d="M319.01 22.7499L232.15 44.8399L230.43 38.0799L228.76 31.4999L315.62 9.41992L319.01 22.7499Z" fill="url(#paint3_linear_4430_1564)"/>
</g>
</g>
<defs>
<filter id="filter0_d_4430_1564" x="169.69" y="52.4502" width="156.53" height="91.7001" filterUnits="userSpaceOnUse" color-interpolation-filters="sRGB">
<feFlood flood-opacity="0" result="BackgroundImageFix"/>
<feColorMatrix in="SourceAlpha" type="matrix" values="0 0 0 0 0 0 0 0 0 0 0 0 0 0 0 0 0 0 127 0" result="hardAlpha"/>
<feOffset dx="-2.83" dy="2.83"/>
<feGaussianBlur stdDeviation="2.02"/>
<feColorMatrix type="matrix" values="0 0 0 0 0 0 0 0 0 0 0 0 0 0 0 0 0 0 0.15 0"/>
<feBlend mode="normal" in2="BackgroundImageFix" result="effect1_dropShadow_4430_1564"/>
<feBlend mode="normal" in="SourceGraphic" in2="effect1_dropShadow_4430_1564" result="shape"/>
</filter>
<filter id="filter1_d_4430_1564" x="65.04" y="156.19" width="22.6099" height="37.6241" filterUnits="userSpaceOnUse" color-interpolation-filters="sRGB">
<feFlood flood-opacity="0" result="BackgroundImageFix"/>
<feColorMatrix in="SourceAlpha" type="matrix" values="0 0 0 0 0 0 0 0 0 0 0 0 0 0 0 0 0 0 127 0" result="hardAlpha"/>
<feOffset dx="0.52" dy="0.29"/>
<feGaussianBlur stdDeviation="0.74"/>
<feColorMatrix type="matrix" values="0 0 0 0 0.176471 0 0 0 0 0.0823529 0 0 0 0 0.286275 0 0 0 0.3 0"/>
<feBlend mode="normal" in2="BackgroundImageFix" result="effect1_dropShadow_4430_1564"/>
<feBlend mode="normal" in="SourceGraphic" in2="effect1_dropShadow_4430_1564" result="shape"/>
</filter>
<filter id="filter2_d_4430_1564" x="56.799" y="119.194" width="82.961" height="91.8164" filterUnits="userSpaceOnUse" color-interpolation-filters="sRGB">
<feFlood flood-opacity="0" result="BackgroundImageFix"/>
<feColorMatrix in="SourceAlpha" type="matrix" values="0 0 0 0 0 0 0 0 0 0 0 0 0 0 0 0 0 0 127 0" result="hardAlpha"/>
<feOffset dx="0.52" dy="0.29"/>
<feGaussianBlur stdDeviation="0.74"/>
<feColorMatrix type="matrix" values="0 0 0 0 0.176471 0 0 0 0 0.0823529 0 0 0 0 0.286275 0 0 0 0.3 0"/>
<feBlend mode="normal" in2="BackgroundImageFix" result="effect1_dropShadow_4430_1564"/>
<feBlend mode="normal" in="SourceGraphic" in2="effect1_dropShadow_4430_1564" result="shape"/>
</filter>
<filter id="filter3_d_4430_1564" x="37.8699" y="105" width="85.41" height="37.98" filterUnits="userSpaceOnUse" color-interpolation-filters="sRGB">
<feFlood flood-opacity="0" result="BackgroundImageFix"/>
<feColorMatrix in="SourceAlpha" type="matrix" values="0 0 0 0 0 0 0 0 0 0 0 0 0 0 0 0 0 0 127 0" result="hardAlpha"/>
<feOffset dx="0.44" dy="0.44"/>
<feGaussianBlur stdDeviation="1.11"/>
<feColorMatrix type="matrix" values="0 0 0 0 0.176471 0 0 0 0 0.0823529 0 0 0 0 0.286275 0 0 0 0.3 0"/>
<feBlend mode="normal" in2="BackgroundImageFix" result="effect1_dropShadow_4430_1564"/>
<feBlend mode="normal" in="SourceGraphic" in2="effect1_dropShadow_4430_1564" result="shape"/>
</filter>
<filter id="filter4_d_4430_1564" x="67.0522" y="128.058" width="62.888" height="86.7715" filterUnits="userSpaceOnUse" color-interpolation-filters="sRGB">
<feFlood flood-opacity="0" result="BackgroundImageFix"/>
<feColorMatrix in="SourceAlpha" type="matrix" values="0 0 0 0 0 0 0 0 0 0 0 0 0 0 0 0 0 0 127 0" result="hardAlpha"/>
<feOffset dx="-1.25" dy="-0.29"/>
<feGaussianBlur stdDeviation="0.74"/>
<feColorMatrix type="matrix" values="0 0 0 0 0.176471 0 0 0 0 0.0823529 0 0 0 0 0.286275 0 0 0 0.3 0"/>
<feBlend mode="normal" in2="BackgroundImageFix" result="effect1_dropShadow_4430_1564"/>
<feBlend mode="normal" in="SourceGraphic" in2="effect1_dropShadow_4430_1564" result="shape"/>
</filter>
<filter id="filter5_d_4430_1564" x="210.75" y="8.20992" width="109.47" height="43.4999" filterUnits="userSpaceOnUse" color-interpolation-filters="sRGB">
<feFlood flood-opacity="0" result="BackgroundImageFix"/>
<feColorMatrix in="SourceAlpha" type="matrix" values="0 0 0 0 0 0 0 0 0 0 0 0 0 0 0 0 0 0 127 0" result="hardAlpha"/>
<feOffset dx="-2.83" dy="2.83"/>
<feGaussianBlur stdDeviation="2.02"/>
<feColorMatrix type="matrix" values="0 0 0 0 0 0 0 0 0 0 0 0 0 0 0 0 0 0 0.15 0"/>
<feBlend mode="normal" in2="BackgroundImageFix" result="effect1_dropShadow_4430_1564"/>
<feBlend mode="normal" in="SourceGraphic" in2="effect1_dropShadow_4430_1564" result="shape"/>
</filter>
<linearGradient id="paint0_linear_4430_1564" x1="257.06" y1="92.8606" x2="282.65" y2="92.8606" gradientUnits="userSpaceOnUse">
<stop stop-color="#FF4F59"/>
<stop offset="0.51" stop-color="#FF505A"/>
<stop offset="0.69" stop-color="#FF5761"/>
<stop offset="0.82" stop-color="#FF626D"/>
<stop offset="0.93" stop-color="#FF727E"/>
<stop offset="1" stop-color="#FF838F"/>
</linearGradient>
<linearGradient id="paint1_linear_4430_1564" x1="119.597" y1="208.142" x2="75.4656" y2="131.581" gradientUnits="userSpaceOnUse">
<stop stop-color="#875151"/>
<stop offset="0.34" stop-color="#804B4B"/>
<stop offset="0.81" stop-color="#6F3A3A"/>
<stop offset="0.92" stop-color="#6A3636"/>
</linearGradient>
<linearGradient id="paint2_linear_4430_1564" x1="204.129" y1="44.7968" x2="222.873" y2="40.0296" gradientUnits="userSpaceOnUse">
<stop stop-color="#FF4F59"/>
<stop offset="0.51" stop-color="#FF505A"/>
<stop offset="0.69" stop-color="#FF5761"/>
<stop offset="0.82" stop-color="#FF626D"/>
<stop offset="0.93" stop-color="#FF727E"/>
<stop offset="1" stop-color="#FF838F"/>
</linearGradient>
<linearGradient id="paint3_linear_4430_1564" x1="230.454" y1="38.1534" x2="317.309" y2="16.0628" gradientUnits="userSpaceOnUse">
<stop stop-color="#FF4F59"/>
<stop offset="0.51" stop-color="#FF505A"/>
<stop offset="0.69" stop-color="#FF5761"/>
<stop offset="0.82" stop-color="#FF626D"/>
<stop offset="0.93" stop-color="#FF727E"/>
<stop offset="1" stop-color="#FF838F"/>
</linearGradient>
<clipPath id="clip0_4430_1564">
<rect width="345" height="159" rx="12" fill="white"/>
</clipPath>
</defs>
</svg>
